<svg xmlns="http://www.w3.org/2000/svg" viewBox="0 0 379.64 526.17"><defs><style>.cls-1,.cls-2{fill:none;stroke:#000;stroke-width:0.5px;}.cls-1{stroke-linecap:round;stroke-linejoin:round;}.cls-2{stroke-miterlimit:10;}</style></defs><g id="カット2_R0G0B255_" data-name="カット2(R0G0B255)"><path class="cls-1" d="M396.52,211.52a4.78,4.78,0,0,0,.65-2.47" transform="translate(-17.78 -18.94)"/><path class="cls-1" d="M353.57,277.6a3.93,3.93,0,0,0,5.46-1.06h0" transform="translate(-17.78 -18.94)"/><path class="cls-1" d="M313.05,254.19a9.15,9.15,0,0,0-1.86-.37" transform="translate(-17.78 -18.94)"/><path class="cls-1" d="M359,276.53l37.49-65" transform="translate(-17.78 -18.94)"/><path class="cls-1" d="M313.05,254.18l40.51,23.42" transform="translate(-17.78 -18.94)"/><path class="cls-1" d="M207.24,240.29l104,13.53" transform="translate(-17.78 -18.94)"/><path class="cls-1" d="M206.24,239.88a1.42,1.42,0,0,0,1,.42" transform="translate(-17.78 -18.94)"/><path class="cls-1" d="M176.36,198.89l29.88,41" transform="translate(-17.78 -18.94)"/><path class="cls-1" d="M338.34,34.07v3.55" transform="translate(-17.78 -18.94)"/><path class="cls-1" d="M338.35,34.08a1.42,1.42,0,0,0-1.42-1.42" transform="translate(-17.78 -18.94)"/><path class="cls-1" d="M338.35,37.62A1.42,1.42,0,0,0,339.77,39h0" transform="translate(-17.78 -18.94)"/><path class="cls-1" d="M395.75,39h-56" transform="translate(-17.78 -18.94)"/><path class="cls-1" d="M176.36,198.9a1.45,1.45,0,0,0-1-.41" transform="translate(-17.78 -18.94)"/><path class="cls-1" d="M18,197.07a1.43,1.43,0,0,0,1.42,1.42h0" transform="translate(-17.78 -18.94)"/><path class="cls-1" d="M19.45,39A1.42,1.42,0,0,0,18,40.46h0" transform="translate(-17.78 -18.94)"/><path class="cls-1" d="M124.33,39a1.42,1.42,0,0,0,1.42-1.42h0" transform="translate(-17.78 -18.94)"/><path class="cls-1" d="M127.17,25.57A1.42,1.42,0,0,0,125.75,27" transform="translate(-17.78 -18.94)"/><path class="cls-1" d="M178.19,25.57a1.42,1.42,0,0,0,1.42-1.41h0" transform="translate(-17.78 -18.94)"/><path class="cls-1" d="M181,19.2a1.41,1.41,0,0,0-1.42,1.41h0" transform="translate(-17.78 -18.94)"/><path class="cls-1" d="M230.63,20.61a1.41,1.41,0,0,0-1.41-1.41h0" transform="translate(-17.78 -18.94)"/><path class="cls-1" d="M230.63,24.16a1.42,1.42,0,0,0,1.42,1.41h0" transform="translate(-17.78 -18.94)"/><path class="cls-1" d="M284.49,27a1.42,1.42,0,0,0-1.42-1.42" transform="translate(-17.78 -18.94)"/><path class="cls-1" d="M284.49,31.24a1.42,1.42,0,0,0,1.42,1.42" transform="translate(-17.78 -18.94)"/><path class="cls-1" d="M397.17,40.46A1.42,1.42,0,0,0,395.75,39" transform="translate(-17.78 -18.94)"/><path class="cls-1" d="M397.17,40.45V209" transform="translate(-17.78 -18.94)"/><path class="cls-1" d="M175.36,198.48H19.45" transform="translate(-17.78 -18.94)"/><path class="cls-1" d="M18,40.45V197.07" transform="translate(-17.78 -18.94)"/><path class="cls-1" d="M124.33,39H19.45" transform="translate(-17.78 -18.94)"/><path class="cls-1" d="M125.75,27V37.62" transform="translate(-17.78 -18.94)"/><path class="cls-1" d="M178.19,25.57h-51" transform="translate(-17.78 -18.94)"/><path class="cls-1" d="M179.6,20.61v3.54" transform="translate(-17.78 -18.94)"/><path class="cls-1" d="M229.21,19.19H181" transform="translate(-17.78 -18.94)"/><path class="cls-1" d="M230.63,24.15V20.61" transform="translate(-17.78 -18.94)"/><path class="cls-1" d="M283.07,25.57h-51" transform="translate(-17.78 -18.94)"/><path class="cls-1" d="M284.49,31.24V27" transform="translate(-17.78 -18.94)"/><path class="cls-1" d="M336.93,32.65h-51" transform="translate(-17.78 -18.94)"/></g><g id="カット1_R255G0B0_" data-name="カット1(R255G0B0)"><circle class="cls-2" cx="52.7" cy="126.39" r="3.12"/><circle class="cls-2" cx="52.7" cy="73.24" r="3.12"/><circle class="cls-2" cx="268.13" cy="62.61" r="3.12"/><circle class="cls-2" cx="175.29" cy="175.29" r="3.12"/><circle class="cls-2" cx="307.11" cy="197.25" r="3.12"/><circle class="cls-2" cx="225.43" cy="522.8" r="3.12"/><circle class="cls-2" cx="77.09" cy="478.23" r="3.12"/></g></svg>