0
SECTION
2
HEADER
9
$INSUNITS
70
4
9
$ACADVER
1
AC1014
9
$HANDSEED
5
FFFF
0
ENDSEC
0
SECTION
2
TABLES
0
TABLE
2
VPORT
5
8
100
AcDbSymbolTable
0
ENDTAB
0
TABLE
2
LTYPE
5
5
100
AcDbSymbolTable
0
LTYPE
5
14
100
AcDbSymbolTableRecord
100
AcDbLinetypeTableRecord
2
BYBLOCK
70
0
0
LTYPE
5
15
100
AcDbSymbolTableRecord
100
AcDbLinetypeTableRecord
2
BYLAYER
70
0
0
ENDTAB
0
TABLE
2
LAYER
5
2
100
AcDbSymbolTable
70
2
0
LAYER
5
50
100
AcDbSymbolTableRecord
100
AcDbLayerTableRecord
2
0
70
0
6
CONTINUOUS
0
ENDTAB
0
TABLE
2
STYLE
5
3
100
AcDbSymbolTable
70
1
0
STYLE
5
11
100
AcDbSymbolTableRecord
100
AcDbTextStyleTableRecord
2
STANDARD
70
0
0
ENDTAB
0
TABLE
2
VIEW
5
6
100
AcDbSymbolTable
70
0
0
ENDTAB
0
TABLE
2
UCS
5
7
100
AcDbSymbolTable
70
0
0
ENDTAB
0
TABLE
2
APPID
5
9
100
AcDbSymbolTable
70
2
0
APPID
5
12
100
AcDbSymbolTableRecord
100
AcDbRegAppTableRecord
2
ACAD
70
0
0
ENDTAB
0
TABLE
2
DIMSTYLE
5
A
100
AcDbSymbolTable
70
1
0
ENDTAB
0
TABLE
2
BLOCK_RECORD
5
1
100
AcDbSymbolTable
70
1
0
BLOCK_RECORD
5
1F
100
AcDbSymbolTableRecord
100
AcDbBlockTableRecord
2
*MODEL_SPACE
0
BLOCK_RECORD
5
1B
100
AcDbSymbolTableRecord
100
AcDbBlockTableRecord
2
*PAPER_SPACE
0
ENDTAB
0
ENDSEC
0
SECTION
2
BLOCKS
0
BLOCK
5
20
100
AcDbEntity
100
AcDbBlockBegin
2
*MODEL_SPACE
0
ENDBLK
5
21
100
AcDbEntity
100
AcDbBlockEnd
0
BLOCK
5
1C
100
AcDbEntity
100
AcDbBlockBegin
2
*PAPER_SPACE
0
ENDBLK
5
1D
100
AcDbEntity
100
AcDbBlockEnd
0
ENDSEC
0
SECTION
2
ENTITIES
0
LWPOLYLINE
5
100
100
AcDbEntity
8
0
100
AcDbPolyline
90
4
70
1
43
0.0
10
44.145649253361341
20
-28.168546163573133
10
56.270004906342919
20
-35.168546163572174
10
49.270004906343956
20
-47.292901816554433
10
37.145649253362237
20
-40.292901816554107
0
LWPOLYLINE
5
101
100
AcDbEntity
8
0
100
AcDbPolyline
90
4
70
1
43
0.0
10
24.970595882287064
20
-7.0073375814425365
10
38.970595882286339
20
-7.0073375814425454
10
38.970595882286339
20
-21.007337581441881
10
24.970595882287057
20
-21.007337581441877
0
LINE
5
102
100
AcDbEntity
8
0
100
AcDbLine
10
22.468837252491323
20
33.367655164445864
30
0
11
40.955503788945819
21
33.367655164445921
31
0
0
LWPOLYLINE
5
103
100
AcDbEntity
8
0
100
AcDbPolyline
90
4
70
1
43
0.0
10
24.970595882287064
20
16.992655164446468
10
24.970595882287064
20
30.992655164445857
10
38.970595882286347
20
30.992655164445857
10
38.970595882286347
20
16.992655164446468
0
LWPOLYLINE
5
104
100
AcDbEntity
8
0
100
AcDbPolyline
90
4
70
1
43
0.0
10
38.970595882286347
20
11.992662418556943
10
38.970595882286339
20
-2.0073375814417549
10
24.970595882287064
20
-2.0073375814417549
10
24.970595882287064
20
11.992662418556943
0
LINE
5
105
100
AcDbEntity
8
0
100
AcDbLine
10
61.352038687280491
20
29.494019935357976
30
0
11
40.955510846463582
21
29.494019961099092
31
0
0
LWPOLYLINE
5
106
100
AcDbEntity
8
0
100
AcDbPolyline
90
4
70
1
43
0.0
10
29.399576523621441
20
-42.563791782474709
10
15.876614955574532
20
-38.940325151039715
10
19.500081587010861
20
-25.417363582994138
10
33.023043155056492
20
-29.040830214429207
0
LINE
5
107
100
AcDbEntity
8
0
100
AcDbLine
10
31.927082931603881
20
-45.961124675481756
30
0
11
-5.5651242234241671
21
-41.083086329969312
31
0
0
LINE
5
108
100
AcDbEntity
8
0
100
AcDbLine
10
-5.5651242234241671
20
-41.083086329969312
30
0
11
-16.748896987356972
21
-25.747245340950663
31
0
0
SPLINE
5
109
100
AcDbEntity
8
0
100
AcDbSpline
70
0
71
3
72
56
73
52
74
0
42
0.000000001
43
0.0000000001
44
0.0000000001
40
-0.013920111457082801
40
-0.013920111457082801
40
-0.013920111457082801
40
-0.013920111457082801
40
0
40
0
40
0
40
0.10424254610754538
40
0.10424254610754538
40
0.10424254610754538
40
0.20824233872475514
40
0.20824233872475514
40
0.20824233872475514
40
0.28065433115858729
40
0.28065433115858729
40
0.28065433115858729
40
0.33847800388292704
40
0.33847800388292704
40
0.33847800388292704
40
0.42116825339756114
40
0.42116825339756114
40
0.42116825339756114
40
0.47116328091196025
40
0.47116328091196025
40
0.47116328091196025
40
0.52404095133561246
40
0.52404095133561246
40
0.52404095133561246
40
0.56635940125761153
40
0.56635940125761153
40
0.56635940125761153
40
0.61834256839751622
40
0.61834256839751622
40
0.61834256839751622
40
0.68704886382504426
40
0.68704886382504426
40
0.68704886382504426
40
0.75203613667460756
40
0.75203613667460756
40
0.75203613667460756
40
0.81120402431471017
40
0.81120402431471017
40
0.81120402431471017
40
0.87179313582391971
40
0.87179313582391971
40
0.87179313582391971
40
0.99093059221992519
40
0.99093059221992519
40
0.99093059221992519
40
1
40
1
40
1
40
1.0447488807676732
40
1.0447488807676732
40
1.0447488807676732
40
1.0447488807676732
10
-75.40776457256014
20
-28.74724534095072
30
0
10
-74.407764572560097
20
-28.74724534095072
30
0
10
-73.407764572560055
20
-28.74724534095072
30
0
10
-72.407764572560012
20
-28.74724534095072
30
0
10
-64.977185611855049
20
-28.74724534095072
30
0
10
-58.898229218434537
20
-28.983690692775887
30
0
10
-53.784495799894799
20
-29.289545725340147
30
0
10
-48.68267092237167
20
-29.594688501925791
30
0
10
-44.506585798493688
20
-29.917572728866929
30
0
10
-40.594123788810172
20
-30.272004574082612
30
0
10
-37.869991727454725
20
-30.518785028621899
30
0
10
-35.284602931383063
20
-30.773299685606172
30
0
10
-32.605546480257267
20
-31.276232129050186
30
0
10
-30.466220130668372
20
-31.677842415339896
30
0
10
-28.206513952737904
20
-32.276593272961378
30
0
10
-25.78906866647468
20
-33.163516676728058
30
0
10
-22.3320216735925
20
-34.431853918249637
30
0
10
-18.603054813754987
20
-36.304188982419021
30
0
10
-15.570168616684727
20
-38.109814454115337
30
0
10
-13.736467185614137
20
-39.201506590346966
30
0
10
-12.168453937292403
20
-40.249586094900458
30
0
10
-10.90265739164966
20
-41.13346646939975
30
0
10
-9.5638767990273781
20
-42.068310142067944
30
0
10
-8.5891734251147369
20
-42.829599244808243
30
0
10
-7.3761819612626738
20
-43.514300884892393
30
0
10
-6.4054145634637898
20
-44.062273438056366
30
0
10
-5.2908508763751581
20
-44.495967056439255
30
0
10
-4.0369714841510378
20
-44.811631682500455
30
0
10
-2.4967302385617307
20
-45.199388016840217
30
0
10
-0.66671061013024313
20
-45.476293471984391
30
0
10
1.6075745374776906
20
-45.776612316242861
30
0
10
4.6135034916994746
20
-46.173544561262545
30
0
10
8.3752849788583124
20
-46.595833337956847
30
0
10
12.26418976829439
20
-47.084721907390765
30
0
10
15.942590925923923
20
-47.547147288604151
30
0
10
19.680882647009497
20
-48.06206059905282
30
0
10
22.881101473515319
20
-48.617300597913044
30
0
10
25.79475178761232
20
-49.122820777870444
30
0
10
28.248007696102498
20
-49.660704911995083
30
0
10
30.354828441818526
20
-50.271021723553098
30
0
10
32.512255420935247
20
-50.895998460535182
30
0
10
34.382166619316067
20
-51.611569942449179
30
0
10
36.208881681179321
20
-52.421172990836467
30
0
10
39.800784262513254
20
-54.013109982034194
30
0
10
43.122402669288547
20
-55.905539543677634
30
0
10
45.530695622159776
20
-57.286074679976622
30
0
10
45.714028316210829
20
-57.391168715761637
30
0
10
45.89201852354784
20
-57.493597725265374
30
0
10
46.064540570939762
20
-57.593267096837437
30
0
10
46.930667313838939
20
-58.093645509171097
30
0
10
47.796794056738115
20
-58.594023921504757
30
0
10
48.662920799637291
20
-59.094402333838431
30
0
0
SPLINE
5
110
100
AcDbEntity
8
0
100
AcDbSpline
70
4
71
5
72
21
73
15
74
0
42
0.000000001
43
0.0000000001
44
0.0000000001
40
0
40
0
40
0
40
0
40
0
40
0
40
0.10000000000000001
40
0.20000000000000001
40
0.30000000000000004
40
0.40000000000000002
40
0.5
40
0.59999999999999998
40
0.69999999999999996
40
0.79999999999999993
40
0.89999999999999991
40
1
40
1
40
1
40
1
40
1
40
1
41
1
41
1
41
1
41
1
41
1
41
1
41
1
41
1
41
1
41
1
41
1
41
1
41
1
41
1
41
1
10
61.352038687280491
20
29.494019935357976
30
0
10
58.660674417917491
20
30.174150129706433
30
0
10
53.279354982194505
20
31.477766285128755
30
0
10
45.211602994074092
20
33.263263588772787
30
0
10
34.463195004998745
20
35.298431672251844
30
0
10
21.042984105260754
20
37.227387033363406
30
0
10
7.6394491949192824
20
38.485987827487996
30
0
10
-5.7460336808980035
20
39.018918707913969
30
0
10
-19.112685849441398
20
38.794877973712239
30
0
10
-32.461217972363961
20
37.842433362372169
30
0
10
-45.792983081400394
20
36.215975110337688
30
0
10
-56.446074793497935
20
34.419544357909537
30
0
10
-64.429402757263375
20
32.811298182714204
30
0
10
-69.748783611688737
20
31.625058423709124
30
0
10
-72.407764572560012
20
31.003418857006473
30
0
0
LINE
5
111
100
AcDbEntity
8
0
100
AcDbLine
10
13.101067418907014
20
-40.655400358509482
30
0
11
31.083527056581069
21
-45.473785896349092
31
0
0
LWPOLYLINE
5
112
100
AcDbEntity
8
0
100
AcDbPolyline
90
4
70
1
43
0.0
10
-51.034593227449861
20
14.628418857007182
10
-51.034593227449861
20
28.628418857006466
10
-37.034593227449257
20
28.628418857006466
10
-37.034593227449257
20
14.628418857007182
0
LWPOLYLINE
5
113
100
AcDbEntity
8
0
100
AcDbPolyline
90
4
70
1
43
0.0
10
-18.034324265520443
20
14.373240604831006
10
-18.034324265520443
20
0.37324060483101107
10
-32.034324265519246
20
0.37324060483101995
10
-32.034324265519246
20
14.373240604831015
0
LWPOLYLINE
5
114
100
AcDbEntity
8
0
100
AcDbPolyline
90
4
70
1
43
0.0
10
19.968837252491323
20
-18.622490496207192
10
5.9688372524919053
20
-18.622490496207192
10
5.9688372524919053
20
-4.6224904962078472
10
19.968837252491323
20
-4.6224904962071722
0
LWPOLYLINE
5
115
100
AcDbEntity
8
0
100
AcDbPolyline
90
4
70
1
43
0.0
10
-3.5127702481752543
20
-38.280400358509482
10
-3.5127702481752543
20
-24.280400358510157
10
10.487229751824056
20
-24.280400358510157
10
10.487229751823985
20
-38.280400358509482
0
LINE
5
116
100
AcDbEntity
8
0
100
AcDbLine
10
-5.8877702481752525
20
-18.622915449097146
30
0
11
-5.8877702481752525
21
-40.655400358509482
31
0
0
SPLINE
5
117
100
AcDbEntity
8
0
100
AcDbSpline
70
0
71
3
72
20
73
16
74
0
42
0.000000001
43
0.0000000001
44
0.0000000001
40
-0.01682817426943297
40
-0.01682817426943297
40
-0.01682817426943297
40
-0.01682817426943297
40
0
40
0
40
0
40
0.38016823038123509
40
0.38016823038123509
40
0.38016823038123509
40
0.67980802356790693
40
0.67980802356790693
40
0.67980802356790693
40
1
40
1
40
1
40
1.0174281038173008
40
1.0174281038173008
40
1.0174281038173008
40
1.0174281038173008
10
64.351594552749987
20
31.830317019818022
30
0
10
63.5967487702939
20
32.021072843758013
30
0
10
62.841902987837805
20
32.211828667698001
30
0
10
62.087057205381711
20
32.402584491637981
30
0
10
44.889285922600592
20
36.748604708249786
30
0
10
27.709879556647955
20
39.778547778124988
30
0
10
10.531588196685671
20
41.104804966051873
30
0
10
-3.0079431451041128
20
42.150130160911615
30
0
10
-16.540015712316396
20
42.06797058776489
30
0
10
-30.020104695444427
20
40.908531373346342
30
0
10
-44.424788025669855
20
39.66956664950451
30
0
10
-58.7734044144782
20
37.271872530048647
30
0
10
-73.090714760845472
20
33.92464788608325
30
0
10
-73.863064698083662
20
33.744081237659323
30
0
10
-74.635414635321837
20
33.563514589235403
30
0
10
-75.407764572560026
20
33.382947940811484
30
0
0
LINE
5
118
100
AcDbEntity
8
0
100
AcDbLine
10
47.56526009845529
20
-54.995606437757125
30
0
11
61.363558419831719
21
-31.096252687138609
31
0
0
LWPOLYLINE
5
119
100
AcDbEntity
8
0
100
AcDbPolyline
90
4
70
1
43
0.0
10
-32.034324265519246
20
-4.6267593951696639
10
-18.034324265520443
20
-4.6267593951696728
10
-18.034324265520443
20
-18.626759395169003
10
-32.034324265519246
20
-18.626759395168992
0
LWPOLYLINE
5
120
100
AcDbEntity
8
0
100
AcDbPolyline
90
4
70
1
43
0.0
10
-70.032764572560012
20
9.6277546590487528
10
-56.032764572560588
20
9.6277546590487528
10
-56.032764572560588
20
-4.3722453409505846
10
-70.032764572560012
20
-4.3722453409505846
0
LWPOLYLINE
5
121
100
AcDbEntity
8
0
100
AcDbPolyline
90
4
70
1
43
0.0
10
-51.034593227449861
20
-23.371573888881919
10
-51.034593227449861
20
-9.3715738888825584
10
-37.034593227450536
20
-9.3715738888825584
10
-37.034593227450536
20
-23.371573888881919
0
LWPOLYLINE
5
122
100
AcDbEntity
8
0
100
AcDbPolyline
90
4
70
1
43
0.0
10
-56.032764572560588
20
14.627747404938978
10
-70.032764572560012
20
14.627747404938978
10
-70.032764572560012
20
28.627747404938315
10
-56.032764572560588
20
28.627747404938315
0
LINE
5
123
100
AcDbEntity
8
0
100
AcDbLine
10
-34.659593227450529
20
-21.001759395168989
30
0
11
-15.659324265520445
21
-21.001759395168989
31
0
0
LWPOLYLINE
5
124
100
AcDbEntity
8
0
100
AcDbPolyline
90
4
70
1
43
0.0
10
-32.034324265519196
20
33.37323335072
10
-18.034324265520407
20
33.37323335072
10
-18.034324265520443
20
19.373233350720618
10
-32.034324265519246
20
19.373233350720625
0
CIRCLE
5
125
100
AcDbEntity
8
0
100
AcDbCircle
10
-53.541557927663568
20
-6.7475791034573618
30
0
40
1.0999975077154387
210
0
220
0
230
1
0
LWPOLYLINE
5
126
100
AcDbEntity
8
0
100
AcDbPolyline
90
4
70
1
43
0.0
10
-56.032764572560588
20
-23.372245340950748
10
-70.032764572560012
20
-23.37224534095072
10
-70.032764572560012
20
-9.3722453409514017
10
-56.032764572560588
20
-9.3722453409514195
0
LINE
5
127
100
AcDbEntity
8
0
100
AcDbLine
10
-34.53432426551921
20
31.003418857006473
30
0
11
-34.534324265519139
21
35.748233350720007
31
0
0
LWPOLYLINE
5
128
100
AcDbEntity
8
0
100
AcDbPolyline
90
4
70
1
43
0.0
10
-13.03238776493413
20
21.752077296791921
10
-13.032387764934095
20
35.752077296791271
10
0.9676122350652161
20
35.752077296791271
10
0.96761223506518057
20
21.752077296791921
0
LINE
5
129
100
AcDbEntity
8
0
100
AcDbLine
10
-34.534324265519139
20
35.748233350720007
30
0
11
-15.407387764934093
21
35.748233350720007
31
0
0
LWPOLYLINE
5
130
100
AcDbEntity
8
0
100
AcDbPolyline
90
4
70
1
43
0.0
10
-13.032387764934139
20
2.7520845509029801
10
-13.032387764934139
20
16.752084550902318
10
0.96761223506517169
20
16.752084550902318
10
0.96761223506517169
20
2.7520845509029801
0
CIRCLE
5
131
100
AcDbEntity
8
0
100
AcDbCircle
10
-53.54155792766435
20
12.002426908078974
30
0
40
1.100000000000271
210
0
220
0
230
1
0
LINE
5
132
100
AcDbEntity
8
0
100
AcDbLine
10
40.970595882286332
20
-3.8137194547824915
30
0
11
40.970595882286332
21
14.18628054521621
31
0
0
LINE
5
133
100
AcDbEntity
8
0
100
AcDbLine
10
22.468837252491323
20
35.752502249681243
30
0
11
22.468837252491323
21
33.367655164445864
31
0
0
LINE
5
134
100
AcDbEntity
8
0
100
AcDbLine
10
40.970595882286332
20
15.18627329110573
30
0
11
40.970595882286332
21
33.18627329110511
31
0
0
CIRCLE
5
135
100
AcDbEntity
8
0
100
AcDbCircle
10
36.208489477165152
20
-31.747762389366304
30
0
40
1.0999975077155195
210
0
220
0
230
1
0
LWPOLYLINE
5
136
100
AcDbEntity
8
0
100
AcDbPolyline
90
4
70
1
43
0.0
10
0.96761223506517169
20
-16.24791544909715
10
-13.032387764934139
20
-16.24791544909715
10
-13.032387764934139
20
-2.247915449097837
10
0.96761223506517169
20
-2.247915449097837
0
LINE
5
137
100
AcDbEntity
8
0
100
AcDbLine
10
-5.8877702481752525
20
-40.655400358509482
30
0
11
13.101067418907014
21
-40.655400358509482
31
0
0
LWPOLYLINE
5
138
100
AcDbEntity
8
0
100
AcDbPolyline
90
4
70
1
43
0.0
10
5.9688372524919053
20
0.37750950379356496
10
5.9688372524919053
20
14.377509503792245
10
19.968837252491323
20
14.377509503792245
10
19.968837252491323
20
0.37750950379353831
0
SPLINE
5
139
100
AcDbEntity
8
0
100
AcDbSpline
70
4
71
5
72
31
73
25
74
0
42
0.000000001
43
0.0000000001
44
0.0000000001
40
0
40
0
40
0
40
0
40
0
40
0
40
0.050000000000000003
40
0.10000000000000001
40
0.15000000000000002
40
0.20000000000000001
40
0.25
40
0.29999999999999999
40
0.34999999999999998
40
0.39999999999999997
40
0.44999999999999996
40
0.49999999999999994
40
0.54999999999999993
40
0.59999999999999998
40
0.65000000000000002
40
0.70000000000000007
40
0.75000000000000011
40
0.80000000000000016
40
0.8500000000000002
40
0.90000000000000024
40
0.95000000000000029
40
1
40
1
40
1
40
1
40
1
40
1
41
1
41
1
41
1
41
1
41
1
41
1
41
1
41
1
41
1
41
1
41
1
41
1
41
1
41
1
41
1
41
1
41
1
41
1
41
1
41
1
41
1
41
1
41
1
41
1
41
1
10
-72.407764572560012
20
-25.747245340950716
30
0
10
-70.252609415038862
20
-25.747245340950716
30
0
10
-66.11900780155166
20
-25.777248969712772
30
0
10
-60.448454037628849
20
-25.912584551615957
30
0
10
-53.900135638060334
20
-26.234772875501648
30
0
10
-47.077830159371004
20
-26.727990380561625
30
0
10
-41.182803709263425
20
-27.182901066582698
30
0
10
-35.632051519924616
20
-27.703512261321336
30
0
10
-29.940780170086633
20
-28.511760349236749
30
0
10
-23.289710869444733
20
-30.631262519531536
30
0
10
-16.293648045444989
20
-34.026372193283912
30
0
10
-10.497337421569933
20
-37.63646821567923
30
0
10
-6.7937043653054632
20
-40.413002706006715
30
0
10
-4.9464285235107592
20
-41.695569398745178
30
0
10
-0.92966768156392776
20
-42.485853891914054
30
0
10
6.095340407440184
20
-43.318542902830416
30
0
10
14.890164288563899
20
-44.342150949576123
30
0
10
23.552112270213783
20
-45.571215139298673
30
0
10
30.271675429267418
20
-46.938086228921563
30
0
10
35.402562946168558
20
-48.675114010843608
30
0
10
40.170279454984694
20
-50.885358067912485
30
0
10
43.544490102416582
20
-52.714679306196572
30
0
10
45.726222129027704
20
-53.940600864587509
30
0
10
46.984601949218494
20
-54.660148832729064
30
0
10
47.56526009845529
20
-54.995606437757125
30
0
0
LINE
5
140
100
AcDbEntity
8
0
100
AcDbLine
10
3.4676122350652161
20
38.127077296791271
30
0
11
3.4676122350652161
21
35.752502249681285
31
0
0
LWPOLYLINE
5
141
100
AcDbEntity
8
0
100
AcDbPolyline
90
4
70
1
43
0.0
10
5.9688372524919053
20
19.377502249681893
10
5.9688372524919409
20
33.377502249681271
10
19.968837252491323
20
33.377502249681221
10
19.968837252491323
20
19.377502249681847
0
LINE
5
142
100
AcDbEntity
8
0
100
AcDbLine
10
-15.407387764934093
20
38.127077296791271
30
0
11
3.4676122350652161
21
38.127077296791271
31
0
0
LINE
5
143
100
AcDbEntity
8
0
100
AcDbLine
10
40.955370297878027
20
-19.398434519559654
30
0
11
61.326815240331022
21
-31.159893740865453
31
0
0
LINE
5
144
100
AcDbEntity
8
0
100
AcDbLine
10
47.56526009845529
20
-54.995606437757125
30
0
11
31.083527056581069
21
-45.473785896349092
31
0
0
LINE
5
145
100
AcDbEntity
8
0
100
AcDbLine
10
64.363711255336455
20
-31.899835545572536
30
0
11
64.351594552749617
21
31.830317019830332
31
0
0
LINE
5
146
100
AcDbEntity
8
0
100
AcDbLine
10
61.363558419831719
20
-31.096252687138609
30
0
11
61.352038687280491
21
29.494019935357976
31
0
0
LINE
5
147
100
AcDbEntity
8
0
100
AcDbLine
10
3.4676122350652161
20
35.752502249681285
30
0
11
22.468837252491323
21
35.752502249681243
31
0
0
LINE
5
148
100
AcDbEntity
8
0
100
AcDbLine
10
-72.407764572560012
20
31.003418857006473
30
0
11
-72.407764572560012
21
-25.747245340950716
31
0
0
LWPOLYLINE
5
149
100
AcDbEntity
8
0
100
AcDbPolyline
90
4
70
1
43
0.0
10
-51.034593227449861
20
-4.3715738888817768
10
-51.034593227449861
20
9.6284261111175962
10
-37.034593227450536
20
9.6284261111175962
10
-37.034593227450536
20
-4.3715738888817768
0
LINE
5
150
100
AcDbEntity
8
0
100
AcDbLine
10
40.955370297878027
20
-19.398434519559654
30
0
11
40.955510846463582
21
29.494019961099092
31
0
0
LWPOLYLINE
5
151
100
AcDbEntity
8
0
100
AcDbPolyline
90
4
70
1
43
0.0
10
38.970595882286347
20
16.992655164446468
10
24.970595882287064
20
16.992655164446468
10
24.970595882287064
20
30.992655164445857
10
38.970595882286347
20
30.992655164445857
0
LINE
5
152
100
AcDbEntity
8
0
100
AcDbLine
10
-75.407764572560097
20
33.382947940801785
30
0
11
-75.407764572559998
21
-28.747245340950712
31
0
0
LINE
5
153
100
AcDbEntity
8
0
100
AcDbLine
10
40.955503788945819
20
33.367655164445921
30
0
11
40.955510846463582
21
29.494019961099092
31
0
0
LINE
5
154
100
AcDbEntity
8
0
100
AcDbLine
10
-15.659324265520445
20
-18.622915449097146
30
0
11
-5.8877702481752525
21
-18.622915449097146
31
0
0
CIRCLE
5
155
100
AcDbEntity
8
0
100
AcDbCircle
10
22.458471021396047
20
15.752224697967598
30
0
40
1.0999975077154387
210
0
220
0
230
1
0
LINE
5
156
100
AcDbEntity
8
0
100
AcDbLine
10
48.662920799637313
20
-59.094402333838431
30
0
11
64.363711255336455
21
-31.899835545572536
31
0
0
LINE
5
157
100
AcDbEntity
8
0
100
AcDbLine
10
-15.659324265520445
20
-21.001759395168989
30
0
11
-15.659324265520445
21
-18.622915449097146
31
0
0
LINE
5
158
100
AcDbEntity
8
0
100
AcDbLine
10
-72.407764572560012
20
31.003418857006473
30
0
11
-34.53432426551921
21
31.003418857006473
31
0
0
LINE
5
159
100
AcDbEntity
8
0
100
AcDbLine
10
-16.748896987356972
20
-25.747245340950663
30
0
11
-72.407764572560012
21
-25.747245340950716
31
0
0
CIRCLE
5
160
100
AcDbEntity
8
0
100
AcDbCircle
10
-10.291492659979991
20
-23.997724025404761
30
0
40
1.0999975077154387
210
0
220
0
230
1
0
LINE
5
161
100
AcDbEntity
8
0
100
AcDbLine
10
-15.407387764934093
20
35.748233350720007
30
0
11
-15.407387764934093
21
38.127077296791271
31
0
0
LINE
5
162
100
AcDbEntity
8
0
100
AcDbLine
10
-34.659593227450529
20
-25.747245340950681
30
0
11
-34.659593227450529
21
-21.001759395168989
31
0
0
ENDSEC
0
SECTION
2
OBJECTS
0
DICTIONARY
5
C
100
AcDbDictionary
3
ACAD_GROUP
350
D
3
ACAD_MLINESTYLE
350
17
0
DICTIONARY
5
D
100
AcDbDictionary
0
DICTIONARY
5
1A
330
C
100
AcDbDictionary
0
DICTIONARY
5
17
100
AcDbDictionary
0
ENDSEC
0
EOF
