0
SECTION
2
HEADER
9
$INSUNITS
70
4
9
$ACADVER
1
AC1014
9
$HANDSEED
5
FFFF
0
ENDSEC
0
SECTION
2
TABLES
0
TABLE
2
VPORT
5
8
100
AcDbSymbolTable
0
ENDTAB
0
TABLE
2
LTYPE
5
5
100
AcDbSymbolTable
0
LTYPE
5
14
100
AcDbSymbolTableRecord
100
AcDbLinetypeTableRecord
2
BYBLOCK
70
0
0
LTYPE
5
15
100
AcDbSymbolTableRecord
100
AcDbLinetypeTableRecord
2
BYLAYER
70
0
0
ENDTAB
0
TABLE
2
LAYER
5
2
100
AcDbSymbolTable
70
2
0
LAYER
5
50
100
AcDbSymbolTableRecord
100
AcDbLayerTableRecord
2
0
70
0
6
CONTINUOUS
0
ENDTAB
0
TABLE
2
STYLE
5
3
100
AcDbSymbolTable
70
1
0
STYLE
5
11
100
AcDbSymbolTableRecord
100
AcDbTextStyleTableRecord
2
STANDARD
70
0
0
ENDTAB
0
TABLE
2
VIEW
5
6
100
AcDbSymbolTable
70
0
0
ENDTAB
0
TABLE
2
UCS
5
7
100
AcDbSymbolTable
70
0
0
ENDTAB
0
TABLE
2
APPID
5
9
100
AcDbSymbolTable
70
2
0
APPID
5
12
100
AcDbSymbolTableRecord
100
AcDbRegAppTableRecord
2
ACAD
70
0
0
ENDTAB
0
TABLE
2
DIMSTYLE
5
A
100
AcDbSymbolTable
70
1
0
ENDTAB
0
TABLE
2
BLOCK_RECORD
5
1
100
AcDbSymbolTable
70
1
0
BLOCK_RECORD
5
1F
100
AcDbSymbolTableRecord
100
AcDbBlockTableRecord
2
*MODEL_SPACE
0
BLOCK_RECORD
5
1B
100
AcDbSymbolTableRecord
100
AcDbBlockTableRecord
2
*PAPER_SPACE
0
ENDTAB
0
ENDSEC
0
SECTION
2
BLOCKS
0
BLOCK
5
20
100
AcDbEntity
100
AcDbBlockBegin
2
*MODEL_SPACE
0
ENDBLK
5
21
100
AcDbEntity
100
AcDbBlockEnd
0
BLOCK
5
1C
100
AcDbEntity
100
AcDbBlockBegin
2
*PAPER_SPACE
0
ENDBLK
5
1D
100
AcDbEntity
100
AcDbBlockEnd
0
ENDSEC
0
SECTION
2
ENTITIES
0
LINE
5
100
100
AcDbEntity
8
0
100
AcDbLine
10
-67.523428575300997
20
33.553623921882036
30
0
11
-122.51870694787591
21
33.55362392188205
31
0
0
LINE
5
101
100
AcDbEntity
8
0
100
AcDbLine
10
-19.140128862654532
20
13.97678363544134
30
0
11
-56.328292259125874
21
18.8150810944745
31
0
0
LINE
5
102
100
AcDbEntity
8
0
100
AcDbLine
10
-123.01870694787593
20
34.05362392188205
30
0
11
-123.01870694787593
21
89.304044894917865
31
0
0
LINE
5
103
100
AcDbEntity
8
0
100
AcDbLine
10
-84.517495060940234
20
94.55597275814489
30
0
11
-66.520377276652155
21
94.55597275814489
31
0
0
LINE
5
104
100
AcDbEntity
8
0
100
AcDbLine
10
10.370136503729555
20
28.762917202589424
30
0
11
-3.1171494413781686
21
5.3385790560290847
31
0
0
LINE
5
105
100
AcDbEntity
8
0
100
AcDbLine
10
-66.020377276652169
20
95.055972758144875
30
0
11
-66.020377276652169
21
96.306675171068022
31
0
0
LINE
5
106
100
AcDbEntity
8
0
100
AcDbLine
10
-48.018116941365783
20
96.306675171068022
30
0
11
-48.018116941365783
21
95.055972758144875
31
0
0
LINE
5
107
100
AcDbEntity
8
0
100
AcDbLine
10
-65.520377276652169
20
96.806675171068036
30
0
11
-48.518116941365783
21
96.806675171068036
31
0
0
LINE
5
108
100
AcDbEntity
8
0
100
AcDbLine
10
-10.020436277303375
20
40.531578701612844
30
0
11
10.370136503729555
21
28.762917202589424
31
0
0
LINE
5
109
100
AcDbEntity
8
0
100
AcDbLine
10
-3.8006629971728199
20
5.155175559362335
30
0
11
-18.954430081634392
21
13.913855669705505
31
0
0
LINE
5
110
100
AcDbEntity
8
0
100
AcDbLine
10
-56.667770699810234
20
19.016292405043096
30
0
11
-67.119442222437357
21
33.348233878774067
31
0
0
LINE
5
111
100
AcDbEntity
8
0
100
AcDbLine
10
-85.017495060940263
20
90.30404489491788
30
0
11
-85.01749506094022
21
94.055972758144875
31
0
0
LINE
5
112
100
AcDbEntity
8
0
100
AcDbLine
10
-10.020436277303375
20
91.554768839687796
30
0
11
-10.020436277303375
21
89.419889247563319
31
0
0
LINE
5
113
100
AcDbEntity
8
0
100
AcDbLine
10
-28.521042220771136
20
92.054768839687796
30
0
11
-10.520436277303373
21
92.054768839687796
31
0
0
LINE
5
114
100
AcDbEntity
8
0
100
AcDbLine
10
-29.021042220771136
20
94.055972758144861
30
0
11
-29.021042220771136
21
92.554768839687796
31
0
0
LINE
5
115
100
AcDbEntity
8
0
100
AcDbLine
10
-47.518116941365783
20
94.555972758144861
30
0
11
-29.521042220771136
21
94.555972758144847
31
0
0
LINE
5
116
100
AcDbEntity
8
0
100
AcDbLine
10
-122.51870694787591
20
89.80404489491788
30
0
11
-85.517495060940249
21
89.80404489491788
31
0
0
LWPOLYLINE
5
117
100
AcDbEntity
8
0
100
AcDbPolyline
90
4
70
1
43
0.0
10
-50.008503433847764
20
75.806382484287823
10
-64.008503433847068
20
75.806382484287823
10
-64.008503433847068
20
61.806382484288477
10
-50.008503433847764
20
61.806382484288477
0
LWPOLYLINE
5
118
100
AcDbEntity
8
0
100
AcDbPolyline
90
4
70
1
43
0.0
10
-26.005519786625868
20
90.046953097831363
10
-26.005519786625868
20
76.046953097831974
10
-12.005519786626593
20
76.046953097831974
10
-12.005519786626593
20
90.046953097831363
0
LWPOLYLINE
5
119
100
AcDbEntity
8
0
100
AcDbPolyline
90
4
70
1
43
0.0
10
-31.007278416421613
20
40.4318074371783
10
-31.007278416421613
20
54.431807437178321
10
-45.00727841642103
20
54.431807437177646
10
-45.00727841642103
20
40.4318074371783
0
LWPOLYLINE
5
120
100
AcDbEntity
8
0
100
AcDbPolyline
90
4
70
1
43
0.0
10
-26.005519786625868
20
38.046960351943611
10
-12.005519786626593
20
38.046960351943596
10
-12.005519786626593
20
52.046960351942943
10
-26.005519786625868
20
52.046960351942957
0
LWPOLYLINE
5
121
100
AcDbEntity
8
0
100
AcDbPolyline
90
4
70
1
43
0.0
10
-26.005519786625868
20
71.046960351942431
10
-26.005519786625868
20
57.046960351943738
10
-12.005519786626593
20
57.046960351943724
10
-12.005519786626593
20
71.046960351942431
0
LWPOLYLINE
5
122
100
AcDbEntity
8
0
100
AcDbPolyline
90
4
70
1
43
0.0
10
-45.00727841642103
20
59.431807437179046
10
-31.007278416421613
20
59.431807437179017
10
-31.007278416421613
20
73.431807437177724
10
-45.00727841642103
20
73.431807437177753
0
LWPOLYLINE
5
123
100
AcDbEntity
8
0
100
AcDbPolyline
90
4
70
1
43
0.0
10
-31.007278416421613
20
92.431800183066727
10
-45.007278416420995
20
92.431800183066755
10
-45.00727841642103
20
78.431800183067381
10
-31.007278416421613
20
78.431800183067338
0
CIRCLE
5
124
100
AcDbEntity
8
0
100
AcDbCircle
10
-104.5176735965773
20
71.056724841464444
30
0
40
1.100000000000271
210
0
220
0
230
1
0
LWPOLYLINE
5
125
100
AcDbEntity
8
0
100
AcDbPolyline
90
4
70
1
43
0.0
10
-64.008503433847068
20
56.806382484287653
10
-64.008503433847068
20
42.806382484288349
10
-50.008503433847764
20
42.806382484288349
10
-50.008503433847764
20
56.806382484287653
0
LWPOLYLINE
5
126
100
AcDbEntity
8
0
100
AcDbPolyline
90
4
70
1
43
0.0
10
-83.010439934432185
20
78.427531284106124
10
-69.010439934433379
20
78.427531284106124
10
-69.01043993443335
20
92.427531284105498
10
-83.010439934432156
20
92.427531284105498
0
LWPOLYLINE
5
127
100
AcDbEntity
8
0
100
AcDbPolyline
90
4
70
1
43
0.0
10
-107.00888024147353
20
49.682052592434061
10
-121.00888024147292
20
49.682052592434083
10
-121.00888024147292
20
35.682052592434758
10
-107.00888024147353
20
35.682052592434736
0
LWPOLYLINE
5
128
100
AcDbEntity
8
0
100
AcDbPolyline
90
4
70
1
43
0.0
10
-88.010708896363496
20
54.682724044503708
10
-88.010708896363496
20
68.682724044503075
10
-102.01070889636281
20
68.682724044503075
10
-102.01070889636281
20
54.682724044503708
0
LWPOLYLINE
5
129
100
AcDbEntity
8
0
100
AcDbPolyline
90
4
70
1
43
0.0
10
-69.010439934433379
20
73.427538538216496
10
-83.010439934432185
20
73.427538538216496
10
-83.010439934432185
20
59.42753853821651
10
-69.010439934433379
20
59.42753853821651
0
LWPOLYLINE
5
130
100
AcDbEntity
8
0
100
AcDbPolyline
90
4
70
1
43
0.0
10
-83.010439934432185
20
54.427538538215821
10
-83.010439934432185
20
40.427538538216496
10
-69.010439934433379
20
40.427538538216496
10
-69.010439934433379
20
54.427538538215821
0
LWPOLYLINE
5
131
100
AcDbEntity
8
0
100
AcDbPolyline
90
4
70
1
43
0.0
10
-54.48888591708819
20
20.773897574875999
10
-40.48888591708895
20
20.773897574875999
10
-40.488885917088879
20
34.773897574875328
10
-54.48888591708819
20
34.773897574875328
0
LWPOLYLINE
5
132
100
AcDbEntity
8
0
100
AcDbPolyline
90
4
70
1
43
0.0
10
-21.576539145291491
20
16.490506150910775
10
-17.953072513856441
20
30.013467718956282
10
-31.476034081902071
20
33.63693435039135
10
-35.099500713338401
20
20.113972782345773
0
LWPOLYLINE
5
133
100
AcDbEntity
8
0
100
AcDbPolyline
90
4
70
1
43
0.0
10
-102.01070889636281
20
49.682724044502926
10
-102.01070889636281
20
35.682724044503559
10
-88.010708896363496
20
35.682724044503559
10
-88.010708896363496
20
49.682724044502926
0
CIRCLE
5
134
100
AcDbEntity
8
0
100
AcDbCircle
10
-61.267608328892926
20
35.05657390798072
30
0
40
1.0999975077154387
210
0
220
0
230
1
0
LWPOLYLINE
5
135
100
AcDbEntity
8
0
100
AcDbPolyline
90
4
70
1
43
0.0
10
-64.008503433847039
20
94.806375230176755
10
-64.008503433847068
20
80.806375230177409
10
-50.008503433847764
20
80.806375230177409
10
-50.008503433847729
20
94.806375230176755
0
LWPOLYLINE
5
136
100
AcDbEntity
8
0
100
AcDbPolyline
90
4
70
1
43
0.0
10
-107.00888024147353
20
68.682052592434232
10
-121.00888024147292
20
68.682052592434232
10
-121.00888024147292
20
54.682052592434914
10
-107.00888024147353
20
54.6820525924349
0
CIRCLE
5
137
100
AcDbEntity
8
0
100
AcDbCircle
10
-14.76762619174778
20
27.306535544019184
30
0
40
1.0999975077155197
210
0
220
0
230
1
0
LWPOLYLINE
5
138
100
AcDbEntity
8
0
100
AcDbPolyline
90
4
70
1
43
0.0
10
-107.00888024147353
20
73.682045338324457
10
-107.00888024147353
20
87.682045338323803
10
-121.00888024147292
20
87.682045338323803
10
-121.00888024147292
20
73.682045338324457
0
LWPOLYLINE
5
139
100
AcDbEntity
8
0
100
AcDbPolyline
90
4
70
1
43
0.0
10
-88.010708896362218
20
87.682716790391964
10
-102.01070889636281
20
87.682716790391964
10
-102.01070889636281
20
73.682716790392661
10
-88.010708896362218
20
73.682716790392661
0
CIRCLE
5
140
100
AcDbEntity
8
0
100
AcDbCircle
10
-28.517644647516889
20
74.806522631353104
30
0
40
1.0999975077154387
210
0
220
0
230
1
0
CIRCLE
5
141
100
AcDbEntity
8
0
100
AcDbCircle
10
-104.51767359657651
20
52.306718829928123
30
0
40
1.0999975077154387
210
0
220
0
230
1
0
LWPOLYLINE
5
142
100
AcDbEntity
8
0
100
AcDbPolyline
90
4
70
1
43
0.0
10
-6.8304664155515837
20
30.885751769812355
10
-13.830466415550688
20
18.761396116831381
10
-1.7061107625689687
20
11.761396116831051
10
5.293889237429994
20
23.885751769813321
0
LINE
5
143
100
AcDbEntity
8
0
100
AcDbLine
10
10.370136503729555
20
28.762917202589424
30
0
11
10.370136503729555
21
88.919889247563304
31
0
0
LINE
5
144
100
AcDbEntity
8
0
100
AcDbLine
10
9.8701365037295545
20
89.419889247563319
30
0
11
-10.020436277303375
21
89.419889247563319
31
0
0
LINE
5
145
100
AcDbEntity
8
0
100
AcDbLine
10
-10.020436277303375
20
40.531578701612844
30
0
11
-10.020436277303375
21
89.419889247563319
31
0
0
ARC
5
146
100
AcDbEntity
8
0
100
AcDbCircle
10
-85.517495060940263
20
90.30404489491788
30
0
40
0.50000000000000711
210
-0
220
0
230
1
100
AcDbArc
50
-89.99999999999838
51
0
0
ARC
5
147
100
AcDbEntity
8
0
100
AcDbCircle
10
-84.517495060940206
20
94.055972758144875
30
0
40
0.50000000000000711
210
0
220
0
230
1
100
AcDbArc
50
90.000000000003254
51
180
0
ARC
5
148
100
AcDbEntity
8
0
100
AcDbCircle
10
-66.520377276652184
20
95.055972758144918
30
0
40
0.50000000000002487
210
0
220
0
230
1
100
AcDbArc
50
270.00000000000324
51
360
0
ARC
5
149
100
AcDbEntity
8
0
100
AcDbCircle
10
-65.520377276652141
20
96.306675171068008
30
0
40
0.50000000000002487
210
0
220
0
230
1
100
AcDbArc
50
90.000000000003254
51
180
0
ARC
5
150
100
AcDbEntity
8
0
100
AcDbCircle
10
-48.518116941365804
20
96.306675171068008
30
0
40
0.50000000000002487
210
0
220
-0
230
1
100
AcDbArc
50
0
51
89.999999999997556
0
ARC
5
151
100
AcDbEntity
8
0
100
AcDbCircle
10
-47.518116941365804
20
95.055972758144861
30
0
40
0.49999999999998046
210
0
220
0
230
1
100
AcDbArc
50
180
51
270.00000000000244
0
ARC
5
152
100
AcDbEntity
8
0
100
AcDbCircle
10
-29.521042220771108
20
94.055972758144875
30
0
40
0.49999999999997158
210
0
220
0
230
1
100
AcDbArc
50
0
51
90.000000000003254
0
ARC
5
153
100
AcDbEntity
8
0
100
AcDbCircle
10
-28.521042220771111
20
92.554768839687824
30
0
40
0.50000000000002487
210
0
220
0
230
1
100
AcDbArc
50
180
51
269.99999999999716
0
ARC
5
154
100
AcDbEntity
8
0
100
AcDbCircle
10
-10.520436277303402
20
91.554768839687767
30
0
40
0.50000000000002709
210
0
220
-0
230
1
100
AcDbArc
50
0
51
89.999999999996746
0
ARC
5
155
100
AcDbEntity
8
0
100
AcDbCircle
10
9.8701365037295297
20
88.919889247563304
30
0
40
0.50000000000002487
210
0
220
0
230
1
100
AcDbArc
50
0
51
89.999999999997144
0
ARC
5
156
100
AcDbEntity
8
0
100
AcDbCircle
10
-3.5504563039733714
20
5.5880688610871339
30
0
40
0.50000000000000111
210
0
220
0
230
1
100
AcDbArc
50
239.97264680529284
51
330.06748552086674
0
ARC
5
157
100
AcDbEntity
8
0
100
AcDbCircle
10
-19.204636774833833
20
13.480962367980727
30
0
40
0.49999999999998046
210
0
220
-0
230
1
100
AcDbArc
50
59.972646805292399
51
82.587275717047973
0
ARC
5
158
100
AcDbEntity
8
0
100
AcDbCircle
10
-56.263784346946565
20
19.310902361935163
30
0
40
0.50000000000003697
210
0
220
0
230
1
100
AcDbArc
50
216.10167043973797
51
262.58727571704787
0
ARC
5
159
100
AcDbEntity
8
0
100
AcDbCircle
10
-67.523428575300983
20
33.053623921882057
30
0
40
0.49999999999997552
210
0
220
-0
230
1
100
AcDbArc
50
36.101670439735564
51
90.000000000001634
0
ARC
5
160
100
AcDbEntity
8
0
100
AcDbCircle
10
-122.51870694787591
20
34.053623921882057
30
0
40
0.50000000000000711
210
0
220
0
230
1
100
AcDbArc
50
180
51
270
0
ARC
5
161
100
AcDbEntity
8
0
100
AcDbCircle
10
-122.5187069478759
20
89.304044894917851
30
0
40
0.50000000000002487
210
0
220
0
230
1
100
AcDbArc
50
90.000000000001634
51
180
0
LWPOLYLINE
5
162
100
AcDbEntity
8
0
100
AcDbPolyline
90
24
70
1
43
0.0
10
13.370136503729555
20
88.919889247563304
10
13.370136503729555
20
27.960962941701538
10
-0.5173082658069611
20
3.8416402256807913
42
-0.41469845638406388
10
-5.3019031563695096
20
2.5578157490135456
10
-20.022879795255399
20
11.066348615672524
10
-56.71533973220172
20
15.840153489710708
42
-0.20565981242101677
10
-59.091688816992146
20
17.248632663690898
10
-68.794449499968778
20
30.553623921882036
10
-122.51870694787591
20
30.553623921882043
42
-0.41421356237309431
10
-126.01870694787593
20
34.05362392188205
10
-126.01870694787593
20
89.304044894917979
42
-0.4142135623730831
10
-122.51870694787591
20
92.80404489491788
10
-88.017495060940249
20
92.80404489491788
10
-88.017495060940234
20
94.055972758144875
42
-0.41421356237309354
10
-84.517495060940234
20
97.55597275814489
10
-68.789819972116319
20
97.555972758144918
42
-0.31092679722819183
10
-65.520377276652169
20
99.806675171068036
10
-48.518116941365619
20
99.806675171068036
42
-0.31092679722818084
10
-45.248674245901626
20
97.555972758144875
10
-29.521042220771292
20
97.555972758144861
42
-0.3317788708150694
10
-26.166581550634355
20
95.05476883968781
10
-10.520436277303201
20
95.05476883968781
42
-0.3428126856140542
10
-7.1290402992617015
20
92.419889247563333
10
9.8701365037297002
20
92.419889247563333
42
-0.41421356237308071
0
ENDSEC
0
SECTION
2
OBJECTS
0
DICTIONARY
5
C
100
AcDbDictionary
3
ACAD_GROUP
350
D
3
ACAD_MLINESTYLE
350
17
0
DICTIONARY
5
D
100
AcDbDictionary
0
DICTIONARY
5
1A
330
C
100
AcDbDictionary
0
DICTIONARY
5
17
100
AcDbDictionary
0
ENDSEC
0
EOF
