<svg xmlns="http://www.w3.org/2000/svg" viewBox="0 0 384.27 266.45"><defs><style>.cls-1{fill:none;stroke:#000;stroke-miterlimit:10;stroke-width:0px;}</style></defs><g id="カット2_R0G0B255_" data-name="カット2(R0G0B255)"><g id="CIRCLE"><path class="cls-1" d="M228.41,189.84A3.12,3.12,0,1,0,225.3,193a3.12,3.12,0,0,0,3.11-3.12Z" transform="translate(-18.61 -12.25)"/></g><g id="CIRCLE-2" data-name="CIRCLE"><path class="cls-1" d="M135.5,77.17a3.12,3.12,0,1,0-3.12,3.12,3.12,3.12,0,0,0,3.12-3.12Z" transform="translate(-18.61 -12.25)"/></g><g id="CIRCLE-3" data-name="CIRCLE"><path class="cls-1" d="M351,87.44a3.12,3.12,0,1,0-3.12,3.11A3.12,3.12,0,0,0,351,87.44Z" transform="translate(-18.61 -12.25)"/></g><g id="CIRCLE-4" data-name="CIRCLE"><path class="cls-1" d="M351,141.34a3.12,3.12,0,1,0-3.12,3.12,3.12,3.12,0,0,0,3.12-3.12Z" transform="translate(-18.61 -12.25)"/></g><g id="CIRCLE-5" data-name="CIRCLE"><path class="cls-1" d="M96.55,211.82a3.12,3.12,0,1,0-3.12,3.12,3.12,3.12,0,0,0,3.12-3.12Z" transform="translate(-18.61 -12.25)"/></g></g><g id="カット1_R255G0B0_" data-name="カット1(R255G0B0)"><path class="cls-1" d="M62.78,278.69a5,5,0,0,1-4.11-2.12l-.1-.15-.07-.11L21,211a16.31,16.31,0,0,1-2.36-7.65V36.08a4,4,0,0,1,4-4H77.44V29.68a4,4,0,0,1,4-4H131.3V22.59a4,4,0,0,1,4-4h50.17V16.22a4,4,0,0,1,4-4h47.64a4,4,0,0,1,4,4v2.41h50.17a4,4,0,0,1,4,4v9.5H398.91a4,4,0,0,1,4,4V192.68a4,4,0,0,1-4,4H243.59L214.16,237a2.78,2.78,0,0,1-.41.43,4.44,4.44,0,0,1-2.32,1L107.18,253.94l-.14,0L65.56,277.85A5,5,0,0,1,62.78,278.69Z" transform="translate(-18.61 -12.25)"/></g></svg>