0
SECTION
2
HEADER
9
$INSUNITS
70
4
9
$ACADVER
1
AC1014
9
$HANDSEED
5
FFFF
0
ENDSEC
0
SECTION
2
TABLES
0
TABLE
2
VPORT
5
8
100
AcDbSymbolTable
0
ENDTAB
0
TABLE
2
LTYPE
5
5
100
AcDbSymbolTable
0
LTYPE
5
14
100
AcDbSymbolTableRecord
100
AcDbLinetypeTableRecord
2
BYBLOCK
70
0
0
LTYPE
5
15
100
AcDbSymbolTableRecord
100
AcDbLinetypeTableRecord
2
BYLAYER
70
0
0
ENDTAB
0
TABLE
2
LAYER
5
2
100
AcDbSymbolTable
70
2
0
LAYER
5
50
100
AcDbSymbolTableRecord
100
AcDbLayerTableRecord
2
0
70
0
6
CONTINUOUS
0
ENDTAB
0
TABLE
2
STYLE
5
3
100
AcDbSymbolTable
70
1
0
STYLE
5
11
100
AcDbSymbolTableRecord
100
AcDbTextStyleTableRecord
2
STANDARD
70
0
0
ENDTAB
0
TABLE
2
VIEW
5
6
100
AcDbSymbolTable
70
0
0
ENDTAB
0
TABLE
2
UCS
5
7
100
AcDbSymbolTable
70
0
0
ENDTAB
0
TABLE
2
APPID
5
9
100
AcDbSymbolTable
70
2
0
APPID
5
12
100
AcDbSymbolTableRecord
100
AcDbRegAppTableRecord
2
ACAD
70
0
0
ENDTAB
0
TABLE
2
DIMSTYLE
5
A
100
AcDbSymbolTable
70
1
0
ENDTAB
0
TABLE
2
BLOCK_RECORD
5
1
100
AcDbSymbolTable
70
1
0
BLOCK_RECORD
5
1F
100
AcDbSymbolTableRecord
100
AcDbBlockTableRecord
2
*MODEL_SPACE
0
BLOCK_RECORD
5
1B
100
AcDbSymbolTableRecord
100
AcDbBlockTableRecord
2
*PAPER_SPACE
0
ENDTAB
0
ENDSEC
0
SECTION
2
BLOCKS
0
BLOCK
5
20
100
AcDbEntity
100
AcDbBlockBegin
2
*MODEL_SPACE
0
ENDBLK
5
21
100
AcDbEntity
100
AcDbBlockEnd
0
BLOCK
5
1C
100
AcDbEntity
100
AcDbBlockBegin
2
*PAPER_SPACE
0
ENDBLK
5
1D
100
AcDbEntity
100
AcDbBlockEnd
0
ENDSEC
0
SECTION
2
ENTITIES
0
LWPOLYLINE
5
100
100
AcDbEntity
8
0
100
AcDbPolyline
90
34
70
1
43
0.0
10
4.4366608646728167
20
58.413072835446059
10
4.4366608646728167
20
3.1626518764727969
42
0.41421356237309404
10
4.936660864672815
20
2.6626518764727969
10
59.931939223310515
20
2.6626518764727951
42
-0.23960961869123457
10
60.335925576174162
20
2.4572618333648344
10
70.787597096119413
20
-11.874679636688372
42
0.20565981242100032
10
71.127075536803773
20
-12.075890947256966
10
108.31523892389995
20
-16.914188405070444
42
-0.098996443119716435
10
108.50093770492009
20
-16.977116370806275
10
123.65470478546311
20
-25.73579647888463
42
0.41469845638406916
10
124.33821834125774
20
-25.552392982217874
10
137.57627295201544
20
-2.5609127936112048
42
0.41390999716303928
10
137.39290490359255
20
-1.8783749667701877
10
117.68499269282384
20
9.4962808681434421
42
-0.26798705316728033
10
117.43493150699614
20
9.9293288899264187
10
117.43493150699614
20
60.66379677965336
42
0.41421356237308982
10
116.93493150699612
20
61.163796779653353
10
98.934325568278297
20
61.163796779653353
42
-0.41421356237308982
10
98.434325568278283
20
61.663796779653353
10
98.434325568278283
20
63.165000697485077
42
0.41421356237308982
10
97.934325568278268
20
63.665000697485077
10
79.937250852432939
20
63.665000697485077
42
-0.41421356237309503
10
79.437250852432939
20
64.16500069748507
10
79.437250852432939
20
65.415703109845566
42
0.41421356237309503
10
78.937250852432939
20
65.915703109845566
10
61.934990521646995
20
65.915703109845566
42
0.41421356237309503
10
61.434990521646995
20
65.415703109845566
10
61.434990521646995
20
64.16500069748507
42
-0.41421356237309503
10
60.934990521646995
20
63.665000697485077
10
42.93787274210824
20
63.665000697485077
42
0.41421356237309503
10
42.43787274210824
20
63.165000697485077
10
42.43787274210824
20
59.413072835446066
42
-0.41421356237309503
10
41.93787274210824
20
58.913072835446066
10
4.9366608646728167
20
58.913072835446059
42
0.41421356237309537
0
LWPOLYLINE
5
101
100
AcDbEntity
8
0
100
AcDbPolyline
90
4
70
1
43
0.0
10
113.62490136970123
20
-12.129575924879745
10
125.74925701965164
20
-19.129575923130133
10
132.7492570179009
20
-7.0052202731788427
10
120.62490136795013
20
-0.0052202749298579931
0
LWPOLYLINE
5
102
100
AcDbEntity
8
0
100
AcDbPolyline
90
4
70
1
43
0.0
10
86.966481874827508
20
3.882925529161021
10
72.966481878328153
20
3.882925529161021
10
72.966481878328153
20
-10.117074467338245
10
86.966481874827508
20
-10.117074467338245
0
LWPOLYLINE
5
103
100
AcDbEntity
8
0
100
AcDbPolyline
90
4
70
1
43
0.0
10
25.444658910934166
20
4.7917519985620061
10
39.444658907433379
20
4.7917519985620061
10
39.444658907433379
20
18.791751995061361
10
25.444658910934166
20
18.791751995061361
0
LWPOLYLINE
5
104
100
AcDbEntity
8
0
100
AcDbPolyline
90
4
70
1
43
0.0
10
44.444927868114661
20
9.5365664910887205
10
58.444927864613518
20
9.5365664910887205
10
58.444927864613518
20
23.536566487588075
10
44.444927868114661
20
23.536566487588075
0
LWPOLYLINE
5
105
100
AcDbEntity
8
0
100
AcDbPolyline
90
4
70
1
43
0.0
10
6.4464875705733959
20
56.791073279382502
10
6.4464875705733959
20
42.791073282883133
10
20.446487567072822
20
42.791073282883133
10
20.446487567072822
20
56.791073279382502
0
LWPOLYLINE
5
106
100
AcDbEntity
8
0
100
AcDbPolyline
90
4
70
1
43
0.0
10
44.444927868114661
20
47.53655922747847
10
58.444927864613518
20
47.53655922747847
10
58.444927864613518
20
61.536559223977818
10
44.444927868114661
20
61.536559223977818
0
LWPOLYLINE
5
107
100
AcDbEntity
8
0
100
AcDbPolyline
90
4
70
1
43
0.0
10
63.446864363949302
20
63.915403169454365
10
63.446864363949302
20
49.915403172954996
10
77.446864360448586
20
49.915403172954996
10
77.446864360448586
20
63.915403169454365
0
LWPOLYLINE
5
108
100
AcDbEntity
8
0
100
AcDbPolyline
90
4
70
1
43
0.0
10
105.8788286418968
20
-14.400465890232645
10
109.50229527242605
20
-0.87750432556786606
10
95.979333707761114
20
2.7459623049613135
10
92.355867077230869
20
-10.776999259703448
0
LWPOLYLINE
5
109
100
AcDbEntity
8
0
100
AcDbPolyline
90
4
70
1
43
0.0
10
20.446487567072822
20
23.791080541743543
10
20.446487567072822
20
37.791080538242909
10
6.4464875705733959
20
37.791080538242909
10
6.4464875705733959
20
23.791080541743543
0
LWPOLYLINE
5
110
100
AcDbEntity
8
0
100
AcDbPolyline
90
4
70
1
43
0.0
10
25.444658910934166
20
42.791744734951138
10
39.444658907434658
20
42.791744734951138
10
39.444658907434658
20
56.791744731450493
10
25.444658910934166
20
56.791744731450493
0
CIRCLE
5
111
100
AcDbEntity
8
0
100
AcDbCircle
10
98.937723141406764
20
43.915550575630704
30
0
40
1.099997507440438
210
0
220
0
230
1
0
LWPOLYLINE
5
112
100
AcDbEntity
8
0
100
AcDbPolyline
90
4
70
1
43
0.0
10
96.448089373124475
20
28.540835385300333
10
96.448089373124475
20
42.540835381799042
10
82.44808937662512
20
42.540835381799027
10
82.44808937662512
20
28.540835385300323
0
LWPOLYLINE
5
113
100
AcDbEntity
8
0
100
AcDbPolyline
90
4
70
1
43
0.0
10
25.444658910934166
20
23.791751993812174
10
39.444658907433379
20
23.791751993812174
10
39.444658907433379
20
37.791751990311539
10
25.444658910934166
20
37.791751990311539
0
LWPOLYLINE
5
114
100
AcDbEntity
8
0
100
AcDbPolyline
90
4
70
1
43
0.0
10
96.448089373124475
20
9.540835390049569
10
96.448089373124475
20
23.540835386549553
10
82.44808937662512
20
23.540835386548899
10
82.44808937662512
20
9.540835390049569
0
LWPOLYLINE
5
115
100
AcDbEntity
8
0
100
AcDbPolyline
90
4
70
1
43
0.0
10
115.44984799816895
20
45.1559810417995
10
115.44984799816895
20
59.155981038298869
10
101.44984800166966
20
59.155981038298869
10
101.44984800166966
20
45.1559810417995
0
LWPOLYLINE
5
116
100
AcDbEntity
8
0
100
AcDbPolyline
90
4
70
1
43
0.0
10
101.44984800166966
20
21.155988301910416
10
101.44984800166966
20
7.1559883054110784
10
115.44984799816895
20
7.1559883054110784
10
115.44984799816895
20
21.155988301910416
0
LWPOLYLINE
5
117
100
AcDbEntity
8
0
100
AcDbPolyline
90
4
70
1
43
0.0
10
77.446864360448586
20
11.915410436565921
10
77.446864360448586
20
25.915410433065269
10
63.446864363949302
20
25.915410433065269
10
63.446864363949302
20
11.915410436565903
0
LWPOLYLINE
5
118
100
AcDbEntity
8
0
100
AcDbPolyline
90
4
70
1
43
0.0
10
6.4464875705733959
20
18.791080542992749
10
6.4464875705733959
20
4.7910805464933937
10
20.446487567072822
20
4.7910805464933937
10
20.446487567072822
20
18.791080542992749
0
LWPOLYLINE
5
119
100
AcDbEntity
8
0
100
AcDbPolyline
90
4
70
1
43
0.0
10
44.444927868114661
20
28.536566486338863
10
58.444927864613518
20
28.536566486338863
10
58.444927864613518
20
42.536566482838865
10
44.444927868114661
20
42.536566482838865
0
LWPOLYLINE
5
120
100
AcDbEntity
8
0
100
AcDbPolyline
90
4
70
1
43
0.0
10
82.44808937662512
20
47.540828126438619
10
96.448089373124475
20
47.540828126438626
10
96.448089373124475
20
61.540828122937995
10
82.44808937662512
20
61.540828122937981
0
LWPOLYLINE
5
121
100
AcDbEntity
8
0
100
AcDbPolyline
90
4
70
1
43
0.0
10
63.446864363949302
20
44.915410428315411
10
63.446864363949302
20
30.915410431816042
10
77.446864360448586
20
30.915410431816042
10
77.446864360448586
20
44.915410428315411
0
CIRCLE
5
122
100
AcDbEntity
8
0
100
AcDbCircle
10
22.93769421134634
20
40.165752786679391
30
0
40
1.0999999997253114
210
0
220
0
230
1
0
CIRCLE
5
123
100
AcDbEntity
8
0
100
AcDbCircle
10
22.93769421134698
20
21.41574677983062
30
0
40
1.099997507440438
210
0
220
0
230
1
0
LWPOLYLINE
5
124
100
AcDbEntity
8
0
100
AcDbPolyline
90
4
70
1
43
0.0
10
115.44984799816895
20
40.155988297159908
10
101.44984800166966
20
40.155988297159908
10
101.44984800166966
20
26.155988300661193
10
115.44984799816895
20
26.155988300661193
0
CIRCLE
5
125
100
AcDbEntity
8
0
100
AcDbCircle
10
66.187759468218204
20
4.1656018621957536
30
0
40
1.099997507440438
210
0
220
0
230
1
0
CIRCLE
5
126
100
AcDbEntity
8
0
100
AcDbCircle
10
112.68774159373827
20
-3.5844364998283673
30
0
40
1.0999975074405979
210
0
220
0
230
1
0
LWPOLYLINE
5
127
100
AcDbEntity
8
0
100
AcDbPolyline
90
24
70
1
43
0.0
10
39.43787274210824
20
63.165000697485077
10
39.43787274210824
20
61.913072835446066
10
4.9366608646728203
20
61.913072835446059
42
0.41421356237309537
10
1.4366608646728163
20
58.413072835446059
10
1.4366608646728163
20
3.1626518764727969
42
0.41421356237309492
10
4.936660864672815
20
-0.33734812352720356
10
58.660918298642756
20
-0.33734812352720578
10
68.3636789789376
20
-13.642339378040694
42
0.20565981242100331
10
70.740028063727905
20
-15.050818552020752
10
107.43248799129908
20
-19.824623424839256
10
122.1534646262664
20
-28.333156289233408
42
0.41469845638406883
10
126.93805951682897
20
-27.049331812566145
10
140.17611412758669
20
-4.0578516239594453
42
0.41390999716303933
10
138.89253778862638
20
0.71991316392761906
10
120.43493150699615
20
11.372940067262647
10
120.43493150699615
20
60.66379677965341
42
0.41421356237308982
10
116.93493150699612
20
64.163796779653353
10
101.28878623822887
20
64.163796779653353
42
0.33177887076331886
10
97.934325568278268
20
66.66500069748507
10
82.206693547682107
20
66.66500069748507
42
0.31092679718101329
10
78.937250852432939
20
68.915703109845566
10
61.934990521646995
20
68.915703109845566
42
0.31092679718101329
10
58.665547826397827
20
66.66500069748507
10
42.93787274210824
20
66.66500069748507
42
0.41421356237309503
0
ENDSEC
0
SECTION
2
OBJECTS
0
DICTIONARY
5
C
100
AcDbDictionary
3
ACAD_GROUP
350
D
3
ACAD_MLINESTYLE
350
17
0
DICTIONARY
5
D
100
AcDbDictionary
0
DICTIONARY
5
1A
330
C
100
AcDbDictionary
0
DICTIONARY
5
17
100
AcDbDictionary
0
ENDSEC
0
EOF
