<?xml version="1.0" encoding="utf-8"?>
<!-- Generator: Fusion 360, Shaper Origin Export Add-In, Version 1.5.0  -->
<svg enable-background="new 0 0 15.4013106 9.2343723" height="9.2343723cm" shaper:fusionaddin="version:1.5.0" version="1.1" viewBox="0 0 15.4013106 9.2343723" width="15.4013106cm" x="0cm" xml:space="preserve" xmlns="http://www.w3.org/2000/svg" xmlns:shaper="http://www.shapertools.com/namespaces/shaper" xmlns:xlink="http://www.w3.org/1999/xlink" y="0cm"><path d="M-1.120084,3.5629125 L-1.2469116,3.0294892 -1.2469116,3.0294892 -1.2532201,3.0005758 -1.2576441,2.9712984 -1.2601652,2.9417771 -1.2607732,2.9121331 -1.2594657,2.8824879 -1.2562479,2.8529634 -1.251133,2.8236805 -1.2441421,2.7947595 -1.2441421,2.7947595 -1.239878,2.7797228 -0.44855,0.2457758 -0.44855,0.2457758 -0.443416,0.2285371 -0.4373204,0.2118731 -0.4373204,0.2118731 -0.4317702,0.1988468 -0.4252815,0.1854355 -0.4178977,0.171689 -0.4096623,0.1576567 -0.4006185,0.1433881 -0.3908099,0.128933 -0.3802797,0.1143409 -0.3690715,0.0996612 -0.3447941,0.0702379 -0.3183249,0.0410595 -0.2900109,0.0125228 -0.2601992,-0.0149758 -0.229237,-0.0410397 -0.1974713,-0.0652721 -0.1813957,-0.0765777 -0.1652493,-0.0872767 -0.1490756,-0.0973196 -0.132918,-0.1066567 -0.1168198,-0.1152386 -0.1008245,-0.1230157 -0.0849754,-0.1299383 -0.069316,-0.1359569 -0.0538895,-0.141022 -0.0387395,-0.1450839 -0.0239092,-0.1480931 -0.0094421,-0.15 12.4216166,-0.15 12.4216166,-0.15 12.4389568,-0.1536935 12.4562746,-0.1565361 12.473546,-0.1585421 12.4907472,-0.1597259 12.5078541,-0.1601016 12.5248428,-0.1596834 12.5416894,-0.1584858 12.5583699,-0.1565228 12.5748605,-0.1538087 12.5911371,-0.1503579 12.6071759,-0.1461846 12.6229529,-0.1413029 12.6384441,-0.1357273 12.6536257,-0.1294718 12.6684737,-0.1225508 12.6829642,-0.1149786 12.6970732,-0.1067693 12.7107768,-0.0979373 12.7240511,-0.0884968 12.7368721,-0.078462 12.7492158,-0.0678472 12.7610585,-0.0566667 12.772376,-0.0449347 12.7831445,-0.0326654 12.7933401,-0.0198732 12.8029387,-0.0065722 12.8119166,0.0072232 12.8202497,0.0214989 12.8279141,0.0362406 12.8348858,0.0514339 12.841141,0.0670647 12.8466557,0.0831188 12.8466557,0.0831188 12.8534954,0.1072034 14.1315079,5.4823875 A0.2914331,0.2914331 346.6300318 0,1 14.1365381,5.5089894 L14.1365381,5.5089894 14.1386257,5.5248705 14.1399546,5.54071 14.1405373,5.5564882 14.1403864,5.5721852 14.1395145,5.5877812 14.1379343,5.6032565 14.1356582,5.6185912 14.132699,5.6337655 14.1290693,5.6487598 14.1247816,5.6635541 14.1198485,5.6781286 14.1142827,5.6924637 14.1080968,5.7065394 14.1013034,5.720336 14.093915,5.7338337 14.0859443,5.7470127 14.077404,5.7598531 14.0683065,5.7723353 14.0586645,5.7844394 14.0484906,5.7961456 14.0377975,5.8074342 14.0265976,5.8182852 14.0149037,5.828679 14.0027284,5.8385957 13.9900842,5.8480156 13.9769837,5.8569188 13.9634396,5.8652856 13.9494644,5.8730961 13.9350708,5.8803306 13.9202714,5.8869692 13.9050788,5.8929922 13.8895055,5.8983798 10.7013103,7.2027036 4.266339,8.9709089 0.5324941,9.0742708 0.5324941,9.0742708 0.4981988,9.0737105 0.4642055,9.0710671 0.4307067,9.0663341 0.397895,9.0595054 0.3659631,9.0505745 0.3503872,9.0453187 0.3351035,9.039535 0.320136,9.0332226 0.3055089,9.0263807 0.2912461,9.0190085 0.2773718,9.0111051 0.26391,9.0026699 0.2508848,8.9937021 0.2383204,8.9842007 0.2262406,8.9741651 0.2146698,8.9635944 0.2036318,8.9524879 0.1931508,8.9408447 0.1832509,8.9286641 0.1739562,8.9159452 0.1652906,8.9026873 0.1572783,8.8888896 0.1499434,8.8745513 0.14331,8.8596716 0.137402,8.8442497 0.1322437,8.8282848 0.127859,8.8117762 0.1277324,8.8112438 0.1273657,8.8097014 0.1267615,8.8071602 0.1259225,8.8036313 0.1248512,8.7991256 0.1235504,8.7936543 0.1220226,8.7872284 0.1202705,8.7798591 0.1182968,8.7715575 0.1161039,8.7623345 0.1136947,8.7522013 0.1110717,8.741169 0.1082376,8.7292487 0.105195,8.7164514 0.1019465,8.7027882 0.0984948,8.6882702 0.0948424,8.6729085 0.0909921,8.6567142 0.0869465,8.6396983 0.0827082,8.6218719 0.0782798,8.6032462 0.0736641,8.5838321 0.0688635,8.5636409 0.0638807,8.5426835 0.0587185,8.520971 0.0533793,8.4985146 0.047866,8.4753252 0.042181,8.4514141 0.036327,8.4267922 0.0303066,8.4014707 0.0241226,8.3754606 0.0177775,8.348773 0.0112739,8.3214191 0.0046146,8.2934098 -0.0021979,8.2647563 -0.009161,8.2354696 -0.016272,8.2055609 -0.0235282,8.1750411 -0.0309271,8.1439215 -0.0384659,8.1122131 -0.0539531,8.047074 -0.0699686,7.9797126 -0.0864914,7.9102176 -0.1035005,7.8386776 -0.1209746,7.7651813 -0.1388928,7.6898172 -0.157234,7.6126742 -0.1759771,7.5338408 -0.195101,7.4534057 -0.2145846,7.3714575 -0.2344069,7.288085 -0.2545467,7.2033767 -0.2749831,7.1174214 -0.2956949,7.0303077 -0.316661,6.9421242 -0.3378604,6.8529596 -0.3592719,6.7629025 -0.3808746,6.6720417 -0.4026473,6.5804658 -0.424569,6.4882634 -0.4687748,6.3023338 -0.5133234,6.1149623 -0.6027747,5.7387303 -0.6473401,5.5512885 -0.6915738,5.3652417 -0.7135136,5.2729632 -0.7353072,5.1812993 -0.7569336,5.0903389 -0.7783717,5.0001705 -0.7996004,4.9108829 -0.8205986,4.8225646 -0.8413452,4.7353044 -0.8618193,4.6491909 -0.8819996,4.5643127 -0.9018651,4.4807586 -0.9213948,4.3986171 -0.9405675,4.3179769 -0.9405675,4.3179769 -0.9533761,4.2641048 -0.9660037,4.2109932 -0.9784437,4.1586701 -0.9906895,4.1071633 -1.0027344,4.0565009 -1.0145719,4.0067105 -1.0261953,3.9578202 -1.0375981,3.9098579 -1.0487736,3.8628514 -1.0597153,3.8168286 -1.0704165,3.7718174 -1.0808706,3.7278458 -1.091071,3.6849416 -1.1010111,3.6431327 -1.1106843,3.602447 -1.120084,3.5629125z" fill="rgb(0,0,0)" shaper:cutDepth="0.039" shaper:pathType="exterior" transform="matrix(1,0,0,-1,1.2607732,9.0742708)" vector-effect="non-scaling-stroke" /><path d="M-0.7946356,4.2832799 L0.2737909,8.7770792 0.2737909,8.7770792 0.2729056,8.773134 0.2724084,8.770376 0.2722816,8.7687306 0.2725077,8.7681232 0.2730691,8.7684793 0.2739483,8.7697242 0.2751278,8.7717833 0.2765901,8.7745821 0.2783175,8.778046 0.2802925,8.7821004 0.2849154,8.7916823 0.2903183,8.802731 0.296361,8.8146499 0.309804,8.8387111 0.3169238,8.84966 0.3241219,8.8590922 0.3277065,8.863053 0.3312581,8.8664109 0.3384279,8.8718795 0.3541796,8.8821008 0.3717128,8.8914507 0.3908503,8.8998316 0.4114151,8.9071459 0.4332302,8.9132957 0.4561184,8.9181835 0.4799028,8.9217115 0.5044064,8.9237821 0.529452,8.9242975 4.2440712,8.8214678 10.652865,7.0604557 13.8380883,5.7573477 13.8380883,5.7573477 13.8420807,5.756065 13.8438936,5.7554823 13.845082,5.7550951 13.8497936,5.7534864 13.8590163,5.749986 13.8766705,5.741899 13.8932549,5.7324533 13.9087193,5.7217489 13.9230122,5.7098854 13.9360821,5.6969622 13.9478778,5.6830791 13.9583478,5.6683354 13.9674406,5.6528309 13.9751049,5.636665 13.9812892,5.6199374 13.9859422,5.6027476 13.9890124,5.5851951 13.9904485,5.5673795 13.9901989,5.5494004 13.989426,5.5403806 13.9888746,5.5358686 13.9885574,5.5336128 13.9883884,5.532485 13.988131,5.5308262 A0.1414331,0.1414331 352.299356 0,0 13.9855686,5.5170537 L12.7075635,0.1419004 12.7075635,0.1419004 12.7059537,0.1357399 12.7050804,0.1328146 12.7046271,0.131388 12.7043964,0.1306833 12.7039662,0.1293899 12.7039662,0.1293899 12.7034424,0.1277347 12.703064,0.1265624 12.7022866,0.1242312 12.7006504,0.1196223 12.6970559,0.1106146 12.688611,0.0934148 12.6785259,0.0772494 12.6668658,0.0621511 12.6537459,0.0482144 12.6392812,0.0355339 12.6235867,0.0242043 12.6067777,0.0143203 12.5889691,0.0059763 12.570276,-0.0007329 12.5508136,-0.0057127 12.530697,-0.0088684 12.5100412,-0.0101054 12.4889614,-0.0093292 12.4675726,-0.006445 12.4567983,-0.0041828 12.4392036,-0 0,-0 0,0 -0.0053144,0.0012025 -0.0119339,0.003129 -0.0197133,0.0057953 -0.0285075,0.0092168 -0.0381717,0.0134091 -0.0485606,0.0183877 -0.0595292,0.0241683 -0.0709346,0.0307433 -0.0826778,0.0380406 -0.0946911,0.0460038 -0.1192597,0.0637059 -0.1441036,0.0834063 -0.1686859,0.1046618 -0.1924695,0.127029 -0.2149176,0.1500647 -0.2355243,0.173447 -0.2450154,0.1851184 -0.2539047,0.1966119 -0.2621465,0.2078029 -0.2696955,0.2185667 -0.2765062,0.2287786 -0.2825332,0.238314 -0.287731,0.2470482 -0.2920543,0.2548566 -0.2954575,0.2616145 -0.2980023,0.2674671 -0.2980023,0.2674671 -0.3013647,0.276744 -0.3042416,0.2868784 -1.0966919,2.8244189 -1.0966919,2.8244189 -1.0979335,2.8285966 -1.0984519,2.8304988 -1.0986864,2.8314027 -1.0991601,2.8332731 -1.0991601,2.8332731 -1.1040248,2.8531081 -1.1075708,2.8731715 -1.1097996,2.89338 -1.1107129,2.9136501 -1.1103123,2.9338986 -1.1085995,2.9540422 -1.1055761,2.9739976 -1.1012438,2.9936815 -0.9741521,3.5282155 -0.9741521,3.5282155 -0.9647522,3.5677507 -0.9550789,3.6084369 -0.9451387,3.6502463 -0.9349382,3.6931508 -0.924484,3.7371227 -0.9137828,3.782134 -0.9028411,3.8281569 -0.8916656,3.8751634 -0.8802629,3.9231257 -0.8686395,3.9720158 -0.856802,4.0218059 -0.8447572,4.0724681 -0.8325115,4.1239745 -0.8200716,4.1762972 -0.8074441,4.2294083 -0.7946356,4.2832799z" fill="rgb(107,107,107)" fill-rule="nonzero" shaper:cutDepth="0.003" shaper:pathType="hogging" transform="matrix(1,0,0,-1,1.2607732,9.0742708)" vector-effect="non-scaling-stroke" /><path d="M1.7266184,0.6948955 L1.7264633,0.6948018 A0.3610004,0.3610004 82.0459761 0,1 1.6578791,0.6977938 L1.6579588,0.6979054 0.034722,0.2348112 0.0344681,0.234637 0.0344681,0.234637 0.0205898,0.2304011 0.0065946,0.2276093 -0.0074249,0.2262201 -0.021376,0.2261922 -0.0351662,0.2274842 -0.0487028,0.2300546 -0.0618934,0.2338621 -0.0746453,0.2388653 -0.0868659,0.2450229 -0.0984627,0.2522934 -0.109343,0.2606354 -0.1194143,0.2700077 -0.1285839,0.2803687 -0.1367593,0.2916771 -0.143848,0.3038916 -0.1497572,0.3169706 -0.1497572,0.3169706 -0.1499607,0.3174926 -0.1497008,0.3175614 -0.9447994,2.8636502 -0.9447096,2.863786 -0.9447096,2.863786 -0.9492075,2.8815771 -0.9517311,2.8997118 -0.9522515,2.9179807 -0.9507625,2.9361731 -0.9472813,2.9540789 -0.9471782,2.954289 0.4285418,8.7404203 0.4284622,8.7403087 0.4284622,8.7403087 0.4318112,8.7498668 0.4369008,8.7583007 0.4434832,8.7654628 0.4513106,8.7712055 0.4601354,8.7753812 0.4697096,8.7778426 0.4797857,8.7784419 0.4901157,8.7770317 0.4902571,8.7771795 2.4694052,8.3066141 2.4694052,8.3066141 2.4797372,8.3052049 2.4898156,8.3058064 2.4993928,8.3082712 2.5082213,8.3124518 2.5160534,8.3182006 2.5226416,8.3253701 2.5277383,8.3338129 2.5310958,8.3433814 2.5600023,8.4649587 2.5600023,8.4649587 2.563348,8.4745213 2.5684355,8.4829596 2.5750171,8.490126 2.5828449,8.4958727 2.591671,8.5000518 2.6012478,8.5025158 2.6113273,8.5031167 2.6216618,8.5017069 2.6214625,8.5017808 4.4252244,8.0729154 4.4250514,8.0727463 4.4250514,8.0727463 4.4353832,8.0713315 4.4454619,8.0719275 4.4550394,8.0743868 4.4638677,8.0785616 4.4716987,8.0843043 4.4782845,8.0914674 4.4833769,8.0999031 4.486728,8.1094638 4.4869397,8.1096747 4.5216042,8.2554699 4.5214278,8.2554078 4.5214278,8.2554078 4.5247774,8.2649651 4.5298673,8.2733984 4.5364499,8.2805601 4.5442773,8.2863027 4.5531017,8.2904786 4.5626753,8.2929404 4.5727505,8.2935405 4.5830793,8.2921313 4.5833174,8.2922296 6.3868258,7.8634245 6.3867406,7.8632898 6.3867658,7.8632838 6.3867658,7.8632838 6.3970982,7.8618738 6.4071765,7.8624744 6.4167527,7.8649381 6.4255789,7.869117 6.4334069,7.8748635 6.4399889,7.8820297 6.4450768,7.8904679 6.4484227,7.9000304 6.4485411,7.9001837 6.477448,8.0217632 6.4773356,8.021635 6.4773356,8.021635 6.480682,8.0311967 6.4857702,8.0396346 6.4923522,8.0468007 6.5001803,8.0525473 6.5090065,8.0567265 6.5185829,8.0591904 6.5286616,8.0597912 6.5389947,8.058381 6.5391612,8.0585229 8.2426455,7.6534997 8.2424769,7.6533583 8.2424769,7.6533583 8.2523383,7.6499671 8.2610678,7.6448946 8.2685104,7.6383845 8.2745111,7.6306803 8.2789151,7.6220256 8.2815674,7.6126638 8.282313,7.6028386 8.280997,7.5927935 8.2812099,7.5928978 8.2523029,7.4713184 8.252084,7.4711889 8.2520781,7.4711638 8.2520781,7.4711638 8.250768,7.4611178 8.2515191,7.4512927 8.2541763,7.4419321 8.2585847,7.4332795 8.2645893,7.4255782 8.2720353,7.4190719 8.2807676,7.4140039 8.2906313,7.4106177 8.2908694,7.410716 10.0943778,6.9819109 10.0942927,6.9817762 10.0942927,6.9817762 10.1041504,6.9783858 10.1128774,6.9733154 10.1203185,6.9668081 10.1263191,6.9591073 10.1307242,6.9504563 10.133379,6.9410983 10.1341286,6.9312766 10.1328182,6.9212345 10.1329421,6.921309 10.0462219,6.5565728 10.046074,6.5563977 10.0460685,6.5563746 10.0460685,6.5563746 10.0447579,6.5463288 10.0455086,6.5365038 10.0481657,6.5271431 10.052574,6.5184903 10.0585786,6.5107888 10.0660243,6.5042821 10.0747562,6.4992137 10.0846192,6.4958269 10.0847878,6.4959683 13.7923377,5.6144552 13.7921461,5.6143193 13.7921461,5.6143193 13.802009,5.6109326 13.8107409,5.6058641 13.8181867,5.5993574 13.8241912,5.5916559 13.8285996,5.5830031 13.8312566,5.5736425 13.8320074,5.5638175 13.8306967,5.5537716 13.8309042,5.5538529 12.5528917,0.1786688 12.5526842,0.1785875 12.5526842,0.1785875 12.5493332,0.1690268 12.5442407,0.1605911 12.537655,0.153428 12.5298239,0.1476853 12.5209956,0.1435105 12.5114181,0.1410512 12.5013395,0.1404552 12.4910076,0.14187 12.4985897,0.1436471 6.9821728,1.4552393 6.9802375,1.4521179 6.9802375,1.4521179 6.9701444,1.4535924 6.9599746,1.4531027 6.9501302,1.4506684 6.9410004,1.4463856 6.9411367,1.4466144 5.5502096,0.291247 5.5501372,0.2910539 5.5501372,0.2910539 5.5411065,0.2868144 5.5313746,0.2843828 5.5213176,0.283853 5.5113242,0.2852456 5.511423,0.2853262 1.7266184,0.6948955z" fill="rgb(255,255,255)" shaper:cutDepth="0.039" shaper:pathType="interior" stroke="rgb(0,0,0)" transform="matrix(1,0,0,-1,1.2607732,9.0742708)" vector-effect="non-scaling-stroke" /></svg>