0
SECTION
2
HEADER
9
$INSUNITS
70
4
9
$ACADVER
1
AC1014
9
$HANDSEED
5
FFFF
0
ENDSEC
0
SECTION
2
TABLES
0
TABLE
2
VPORT
5
8
100
AcDbSymbolTable
0
ENDTAB
0
TABLE
2
LTYPE
5
5
100
AcDbSymbolTable
0
LTYPE
5
14
100
AcDbSymbolTableRecord
100
AcDbLinetypeTableRecord
2
BYBLOCK
70
0
0
LTYPE
5
15
100
AcDbSymbolTableRecord
100
AcDbLinetypeTableRecord
2
BYLAYER
70
0
0
ENDTAB
0
TABLE
2
LAYER
5
2
100
AcDbSymbolTable
70
2
0
LAYER
5
50
100
AcDbSymbolTableRecord
100
AcDbLayerTableRecord
2
0
70
0
6
CONTINUOUS
0
ENDTAB
0
TABLE
2
STYLE
5
3
100
AcDbSymbolTable
70
1
0
STYLE
5
11
100
AcDbSymbolTableRecord
100
AcDbTextStyleTableRecord
2
STANDARD
70
0
0
ENDTAB
0
TABLE
2
VIEW
5
6
100
AcDbSymbolTable
70
0
0
ENDTAB
0
TABLE
2
UCS
5
7
100
AcDbSymbolTable
70
0
0
ENDTAB
0
TABLE
2
APPID
5
9
100
AcDbSymbolTable
70
2
0
APPID
5
12
100
AcDbSymbolTableRecord
100
AcDbRegAppTableRecord
2
ACAD
70
0
0
ENDTAB
0
TABLE
2
DIMSTYLE
5
A
100
AcDbSymbolTable
70
1
0
ENDTAB
0
TABLE
2
BLOCK_RECORD
5
1
100
AcDbSymbolTable
70
1
0
BLOCK_RECORD
5
1F
100
AcDbSymbolTableRecord
100
AcDbBlockTableRecord
2
*MODEL_SPACE
0
BLOCK_RECORD
5
1B
100
AcDbSymbolTableRecord
100
AcDbBlockTableRecord
2
*PAPER_SPACE
0
ENDTAB
0
ENDSEC
0
SECTION
2
BLOCKS
0
BLOCK
5
20
100
AcDbEntity
100
AcDbBlockBegin
2
*MODEL_SPACE
0
ENDBLK
5
21
100
AcDbEntity
100
AcDbBlockEnd
0
BLOCK
5
1C
100
AcDbEntity
100
AcDbBlockBegin
2
*PAPER_SPACE
0
ENDBLK
5
1D
100
AcDbEntity
100
AcDbBlockEnd
0
ENDSEC
0
SECTION
2
ENTITIES
0
CIRCLE
5
100
100
AcDbEntity
8
0
100
AcDbCircle
10
-40.662835030599247
20
37.206598512596173
30
0
40
4.0800000000000001
210
0
220
0
230
1
0
CIRCLE
5
101
100
AcDbEntity
8
0
100
AcDbCircle
10
-51.713315346098234
20
-29.286044448326223
30
0
40
4.0800000000000001
210
0
220
0
230
1
0
CIRCLE
5
102
100
AcDbEntity
8
0
100
AcDbCircle
10
30.348198150247825
20
-49.318539078870174
30
0
40
4.0800000000000001
210
0
220
0
230
1
0
SPLINE
5
103
100
AcDbEntity
8
0
100
AcDbSpline
70
0
71
3
72
8
73
4
74
0
42
0.000000001
43
0.0000000001
44
0.0000000001
40
0
40
0
40
0
40
0
40
1
40
1
40
1
40
1
10
-78.41927567885665
20
32.410035300292961
30
0
10
-78.41927567885665
20
34.211399171852754
30
0
10
-76.984757058218179
20
35.593112134470068
30
0
10
-75.171756419685948
20
35.913525154017861
30
0
0
LINE
5
104
100
AcDbEntity
8
0
100
AcDbLine
10
-75.171756419685948
20
35.913525154017861
30
0
11
-41.202311079509464
21
41.477641453986642
31
0
0
LINE
5
105
100
AcDbEntity
8
0
100
AcDbLine
10
-41.202311079509464
20
41.477641453986642
30
0
11
25.694495181534123
21
44.035045138072029
31
0
0
LINE
5
106
100
AcDbEntity
8
0
100
AcDbLine
10
25.694495181534123
20
44.035045138072029
30
0
11
62.048884882331876
21
35.994886825728258
31
0
0
SPLINE
5
107
100
AcDbEntity
8
0
100
AcDbSpline
70
0
71
3
72
11
73
7
74
0
42
0.000000001
43
0.0000000001
44
0.0000000001
40
4
40
4
40
4
40
4
40
5
40
5
40
5
40
6
40
6
40
6
40
6
10
62.048884882331876
20
35.994886825728258
30
0
10
64.008761425052043
20
35.544115220902185
30
0
10
65.340252551262239
20
34.260912849743463
30
0
10
65.340252551262239
20
32.408829516873169
30
0
10
65.340252551262239
20
32.387297670090369
30
0
10
65.339908041713741
20
32.365765823307541
30
0
10
65.339563532165101
20
32.344406231299047
30
0
0
LINE
5
108
100
AcDbEntity
8
0
100
AcDbLine
10
65.339563532165101
20
32.344406231299047
30
0
11
65.339563532165101
21
-28.784506785102799
31
0
0
SPLINE
5
109
100
AcDbEntity
8
0
100
AcDbSpline
70
0
71
3
72
8
73
4
74
0
42
0.000000001
43
0.0000000001
44
0.0000000001
40
7
40
7
40
7
40
7
40
8
40
8
40
8
40
8
10
65.339563532165101
20
-28.784506785102799
30
0
10
65.339908041713741
20
-28.792775014267349
30
0
10
65.339908041713741
20
-28.80104324343197
30
0
10
65.339908041713741
20
-28.809311472596555
30
0
0
ELLIPSE
5
110
100
AcDbEntity
8
0
100
AcDbEllipse
10
60.742670180320673
20
-28.910598137969572
30
0
11
1.124282593396789
21
4.5368416032071055
31
0.0
40
0.9826387639183366
41
4.4599759220894084
42
4.9729428061911243
0
ARC
5
111
100
AcDbEntity
8
0
100
AcDbCircle
10
-62.120853320846692
20
-29.7556422369275
30
0
40
2.9845673289943719
210
0
220
0
230
-1
100
AcDbArc
50
207.05999669127777
51
209.99610210123521
0
LINE
5
112
100
AcDbEntity
8
0
100
AcDbLine
10
64.705665962879237
20
-31.247750057056329
30
0
11
51.143703075644709
21
-54.756392629304074
31
0
0
ARC
5
113
100
AcDbEntity
8
0
100
AcDbCircle
10
-48.522989656697746
20
-53.394804421633921
30
0
40
2.9533136087308942
210
0
220
0
230
-1
100
AcDbArc
50
207.45407324705775
51
214.47343981706703
0
SPLINE
5
114
100
AcDbEntity
8
0
100
AcDbSpline
70
0
71
3
72
8
73
4
74
0
42
0.000000001
43
0.0000000001
44
0.0000000001
40
12
40
12
40
12
40
12
40
13
40
13
40
13
40
13
10
50.957667919441221
20
-55.066451222976696
30
0
10
50.296209586273193
20
-56.037968149817061
30
0
10
49.674714360733532
20
-58.329071484023984
30
0
10
47.153823157661066
20
-57.785205743419397
30
0
0
LINE
5
115
100
AcDbEntity
8
0
100
AcDbLine
10
47.153823157661066
20
-57.785205743419397
30
0
11
-74.833792552582878
21
-28.254765935987614
31
0
0
SPLINE
5
116
100
AcDbEntity
8
0
100
AcDbSpline
70
0
71
3
72
8
73
4
74
0
42
0.000000001
43
0.0000000001
44
0.0000000001
40
14
40
14
40
14
40
14
40
15
40
15
40
15
40
15
10
-74.833792552582878
20
-28.254765935987614
30
0
10
-76.710374342237486
20
-27.857890936086847
30
0
10
-78.27923254738127
20
-26.593426056483764
30
0
10
-78.408940392400979
20
-24.744787819098697
30
0
0
ARC
5
117
100
AcDbEntity
8
0
100
AcDbCircle
10
75.419149161957222
20
-24.49597485671795
30
0
40
3.0001265793107921
210
-0
220
0
230
-1
100
AcDbArc
50
-4.7572411601304614
51
0.011686905393049058
0
LINE
5
118
100
AcDbEntity
8
0
100
AcDbLine
10
-78.419275678856692
20
-24.495362905966616
30
0
11
-78.41927567885665
21
32.410035300292961
31
0
0
CIRCLE
5
119
100
AcDbEntity
8
0
100
AcDbCircle
10
25.308817459571955
20
39.633453693911363
30
0
40
4.0800000000000001
210
0
220
0
230
1
0
CIRCLE
5
120
100
AcDbEntity
8
0
100
AcDbCircle
10
-13.492597444201166
20
-38.603791893227815
30
0
40
4.0800000000000001
210
0
220
0
230
1
0
LWPOLYLINE
5
121
100
AcDbEntity
8
0
100
AcDbPolyline
90
4
70
1
43
0.0
10
-43.560837313487824
20
-34.553791894240504
10
-18.560837319737828
20
-34.553791894240504
10
-18.560837319737828
20
-26.553791896241101
10
-43.560837313487824
20
-26.553791896241101
0
SPLINE
5
122
100
AcDbEntity
8
0
100
AcDbSpline
70
0
71
3
72
8
73
4
74
0
42
0.000000001
43
0.0000000001
44
0.0000000001
40
0
40
0
40
0
40
0
40
1
40
1
40
1
40
1
10
-74.903980387031027
20
32.92544784978336
30
0
10
-75.188395397011931
20
32.925519384018656
30
0
10
-75.417453128043263
20
32.693186406927751
30
0
10
-75.417524662277557
20
32.408771396947543
30
0
0
LINE
5
123
100
AcDbEntity
8
0
100
AcDbLine
10
-75.417524662277557
20
32.408766287359242
30
0
11
-75.41935389486656
21
32.410074341947265
31
0
0
LINE
5
124
100
AcDbEntity
8
0
100
AcDbLine
10
-75.41935389486656
20
32.410074341947265
30
0
11
-75.419353894866603
21
-24.495532472482004
31
0
0
LINE
5
125
100
AcDbEntity
8
0
100
AcDbLine
10
-75.419353894866603
20
-24.495532472482004
30
0
11
-75.4175246622776
21
-24.496840527070596
31
0
0
SPLINE
5
126
100
AcDbEntity
8
0
100
AcDbSpline
70
0
71
3
72
8
73
4
74
0
42
0.000000001
43
0.0000000001
44
0.0000000001
40
5
40
5
40
5
40
5
40
6
40
6
40
6
40
6
10
-75.4175246622776
20
-24.496840527070596
30
0
10
-75.417453128043306
20
-24.781260646639822
30
0
10
-75.186831863010724
20
-25.011764391141327
30
0
10
-74.902416853030189
20
-25.011692856905405
30
0
0
LINE
5
127
100
AcDbEntity
8
0
100
AcDbLine
10
-74.902411743442229
20
-25.011692856905405
30
0
11
-74.903980387031055
21
-25.010905980318086
31
0
0
LINE
5
128
100
AcDbEntity
8
0
100
AcDbLine
10
-74.903980387031055
20
-25.010905980318086
30
0
11
-18.254752271930279
21
-25.010905980318086
31
0
0
LINE
5
129
100
AcDbEntity
8
0
100
AcDbLine
10
-18.254752271930279
20
-25.010905980318086
30
0
11
-18.254486573342348
21
-25.011692856905405
31
0
0
ARC
5
130
100
AcDbEntity
8
0
100
AcDbCircle
10
18.254594506536783
20
-25.52669493754447
30
0
40
0.51500209194928492
210
0
220
0
230
-1
100
AcDbArc
50
90.012007944535483
51
135.0168083676609
0
LINE
5
131
100
AcDbEntity
8
0
100
AcDbLine
10
-17.89032621976208
20
-25.162640312574034
30
0
11
-17.891113096350715
21
-25.16002420339742
31
0
0
LINE
5
132
100
AcDbEntity
8
0
100
AcDbLine
10
-17.891113096350715
20
-25.16002420339742
30
0
11
-7.031643903325957
21
-40.050917637920271
31
0
0
LINE
5
133
100
AcDbEntity
8
0
100
AcDbLine
10
-7.031643903325957
20
-40.050917637920271
30
0
11
-7.0313782047367113
21
-40.053012569096076
31
0
0
ARC
5
134
100
AcDbEntity
8
0
100
AcDbCircle
10
-6.6673764824314219
20
-39.688694290333615
30
0
40
0.51500006027345213
210
0
220
0
230
1
100
AcDbArc
50
225.02490299292182
51
270.0176483526854
0
LINE
5
135
100
AcDbEntity
8
0
100
AcDbLine
10
-6.6672178511564795
20
-40.203694326176098
30
0
11
-6.6680047277463927
21
-40.202651970176113
31
0
0
LINE
5
136
100
AcDbEntity
8
0
100
AcDbLine
10
-6.6680047277463927
20
-40.202651970176113
30
0
11
31.100763458165162
21
-45.115705004265116
31
0
0
LINE
5
137
100
AcDbEntity
8
0
100
AcDbLine
10
31.100763458165162
20
-45.115705004265116
30
0
11
31.102071512753113
21
-45.117013058853104
31
0
0
ARC
5
138
100
AcDbEntity
8
0
100
AcDbCircle
10
-30.759595107616704
20
-48.617495447694594
30
0
40
3.5171959062105973
210
0
220
0
230
-1
100
AcDbArc
50
95.587858600564445
51
106.80109319475429
0
LINE
5
139
100
AcDbEntity
8
0
100
AcDbLine
10
31.77624080378763
20
-45.25043462687151
30
0
11
31.775719625787104
21
-45.249126572282812
31
0
0
LINE
5
140
100
AcDbEntity
8
0
100
AcDbLine
10
31.775719625787104
20
-45.249126572282812
30
0
11
46.496565963815542
21
-53.756713615337581
31
0
0
LINE
5
141
100
AcDbEntity
8
0
100
AcDbLine
10
46.496565963815542
20
-53.756713615337581
30
0
11
46.498650675815654
21
-53.759064025926904
31
0
0
SPLINE
5
142
100
AcDbEntity
8
0
100
AcDbSpline
70
0
71
3
72
8
73
4
74
0
42
0.000000001
43
0.0000000001
44
0.0000000001
40
22
40
22
40
22
40
22
40
23
40
23
40
23
40
23
10
46.498650675815654
20
-53.759064025926904
30
0
10
47.161172694695281
20
-54.110437225819794
30
0
10
48.114162663593376
20
-53.889951114763761
30
0
10
48.482192829030097
20
-53.366913347990064
30
0
0
LINE
5
143
100
AcDbEntity
8
0
100
AcDbLine
10
48.482192829030097
20
-53.366913347990064
30
0
11
62.10688942196704
21
-29.748679699559091
31
0
0
LINE
5
144
100
AcDbEntity
8
0
100
AcDbLine
10
62.10688942196704
20
-29.748679699559091
30
0
11
62.106358024789756
21
-29.747105946382497
31
0
0
ARC
5
145
100
AcDbEntity
8
0
100
AcDbCircle
10
60.587089453584539
20
-28.871914346159606
30
0
40
1.7533217983452567
210
0
220
0
230
1
100
AcDbArc
50
-29.944573259332415
51
0.76606705584740176
0
LINE
5
146
100
AcDbEntity
8
0
100
AcDbLine
10
62.340254535880675
20
-28.848472444140754
30
0
11
62.33972313870467
21
-28.846122033552142
31
0
0
LINE
5
147
100
AcDbEntity
8
0
100
AcDbLine
10
62.33972313870467
20
32.410074341947265
30
0
11
62.340254535880675
21
32.408766287359242
31
0
0
SPLINE
5
148
100
AcDbEntity
8
0
100
AcDbSpline
70
0
71
3
72
8
73
4
74
0
42
0.000000001
43
0.0000000001
44
0.0000000001
40
29
40
29
40
29
40
29
40
30
40
30
40
30
40
30
10
62.340254535880675
20
32.408766287359242
30
0
10
62.340193220822613
20
32.693084215162855
30
0
10
62.109709914672848
20
32.923552192548357
30
0
10
61.82539198686932
20
32.923618617194762
30
0
0
LINE
5
149
100
AcDbEntity
8
0
100
AcDbLine
10
61.82539198686932
20
32.923618617194762
30
0
11
61.824349630869335
21
32.92544784978336
31
0
0
LINE
5
150
100
AcDbEntity
8
0
100
AcDbLine
10
41.4814846718307
20
32.92544784978336
30
0
11
41.483569383830741
21
32.923618617194762
31
0
0
LINE
5
151
100
AcDbEntity
8
0
100
AcDbLine
10
41.483569383830741
20
32.923618617194762
30
0
11
41.483324123594585
21
32.923618617194762
31
0
0
SPLINE
5
152
100
AcDbEntity
8
0
100
AcDbSpline
70
0
71
3
72
8
73
4
74
0
42
0.000000001
43
0.0000000001
44
0.0000000001
40
34
40
34
40
34
40
34
40
35
40
35
40
35
40
35
10
41.483324123594585
20
32.923618617194762
30
0
10
41.198904004026744
20
32.923690151429952
30
0
10
40.968400259523889
20
33.154311416461368
30
0
10
40.968461574583301
20
33.438726426442273
30
0
0
LINE
5
153
100
AcDbEntity
8
0
100
AcDbLine
10
40.968461574583301
20
33.438726426442273
30
0
11
40.966111163994015
21
33.440821357618859
31
0
0
LINE
5
154
100
AcDbEntity
8
0
100
AcDbLine
10
40.966111163994015
20
33.440821357618859
30
0
11
40.966111163994015
21
34.727947072619457
31
0
0
LINE
5
155
100
AcDbEntity
8
0
100
AcDbLine
10
40.966111163994015
20
34.727947072619457
30
0
11
40.968461574583301
21
34.726117840031478
31
0
0
SPLINE
5
156
100
AcDbEntity
8
0
100
AcDbSpline
70
0
71
3
72
8
73
4
74
0
42
0.000000001
43
0.0000000001
44
0.0000000001
40
38
40
38
40
38
40
38
40
39
40
39
40
39
40
39
10
40.968461574583301
20
34.726117840031478
30
0
10
40.968522889641292
20
35.010527740423463
30
0
10
40.738039583492949
20
35.241149005454758
30
0
10
40.453619463923758
20
35.241225649279656
30
0
0
LINE
5
157
100
AcDbEntity
8
0
100
AcDbLine
10
40.453619463923758
20
35.241225649279656
30
0
11
40.453353765335791
21
35.243320580455553
31
0
0
LINE
5
158
100
AcDbEntity
8
0
100
AcDbLine
10
40.453353765335791
20
35.243320580455553
30
0
11
21.912988029134084
21
35.243320580455553
31
0
0
LINE
5
159
100
AcDbEntity
8
0
100
AcDbLine
10
21.912988029134084
20
35.243320580455553
30
0
11
21.914296083722107
21
35.241225649279656
31
0
0
SPLINE
5
160
100
AcDbEntity
8
0
100
AcDbSpline
70
0
71
3
72
8
73
4
74
0
42
0.000000001
43
0.0000000001
44
0.0000000001
40
42
40
42
40
42
40
42
40
43
40
43
40
43
40
43
10
21.914296083722107
20
35.241225649279656
30
0
10
21.629875964154124
20
35.241154115043742
30
0
10
21.399259808710482
20
35.471662969134243
30
0
10
21.399188274474596
20
35.756077979114465
30
0
0
LINE
5
161
100
AcDbEntity
8
0
100
AcDbLine
10
21.399188274474596
20
35.756077979114465
30
0
11
21.397614521298678
21
35.758694088291669
31
0
0
LINE
5
162
100
AcDbEntity
8
0
100
AcDbLine
10
21.397614521298678
20
35.758694088291669
30
0
11
21.397614521298678
21
37.302198502621451
31
0
0
LINE
5
163
100
AcDbEntity
8
0
100
AcDbLine
10
21.397614521298678
20
37.302198502621451
30
0
11
21.399188274474596
21
37.301151037033179
31
0
0
SPLINE
5
164
100
AcDbEntity
8
0
100
AcDbSpline
70
0
71
3
72
8
73
4
74
0
42
0.000000001
43
0.0000000001
44
0.0000000001
40
46
40
46
40
46
40
46
40
47
40
47
40
47
40
47
10
21.399188274474596
20
37.301151037033179
30
0
10
21.399116740239918
20
37.585468964836778
30
0
10
21.168653872443315
20
37.81593183263336
30
0
10
20.884335944639787
20
37.816003366869246
30
0
0
LINE
5
165
100
AcDbEntity
8
0
100
AcDbLine
10
20.884335944639787
20
37.816003366869246
30
0
11
20.882241013461851
21
37.817572010457532
31
0
0
LINE
5
166
100
AcDbEntity
8
0
100
AcDbLine
10
20.882241013461851
20
37.817572010457532
30
0
11
2.3444913864372552
21
37.817572010457532
31
0
0
LINE
5
167
100
AcDbEntity
8
0
100
AcDbLine
10
2.3444913864372552
20
37.817572010457532
30
0
11
2.3450125644379227
21
37.816003366869246
31
0
0
LINE
5
168
100
AcDbEntity
8
0
100
AcDbLine
10
2.3450125644379227
20
37.816003366869246
30
0
11
2.344757085025293
21
37.816003366869246
31
0
0
SPLINE
5
169
100
AcDbEntity
8
0
100
AcDbSpline
70
0
71
3
72
8
73
4
74
0
42
0.000000001
43
0.0000000001
44
0.0000000001
40
51
40
51
40
51
40
51
40
52
40
52
40
52
40
52
10
2.344757085025293
20
37.816003366869246
30
0
10
2.0603369654574522
20
37.816074901103853
30
0
10
1.8298332209545976
20
38.046701275724146
30
0
10
1.8299047551904835
20
38.33111628570434
30
0
0
LINE
5
170
100
AcDbEntity
8
0
100
AcDbLine
10
1.8299047551904835
20
38.33111628570434
30
0
11
1.8291178786018492
21
38.332945518292938
31
0
0
LINE
5
171
100
AcDbEntity
8
0
100
AcDbLine
10
1.8291178786018492
20
38.332945518292938
30
0
11
1.8291178786018492
21
39.620071233294354
31
0
0
LINE
5
172
100
AcDbEntity
8
0
100
AcDbLine
10
1.8291178786018492
20
39.620071233294354
30
0
11
1.8299047551904835
21
39.61850258970594
31
0
0
SPLINE
5
173
100
AcDbEntity
8
0
100
AcDbSpline
70
0
71
3
72
8
73
4
74
0
42
0.000000001
43
0.0000000001
44
0.0000000001
40
55
40
55
40
55
40
55
40
56
40
56
40
56
40
56
10
1.8299047551904835
20
39.61850258970594
30
0
10
1.8299762894251614
20
39.902917599686241
30
0
10
1.5994725449222358
20
40.133543974305859
30
0
10
1.315052425354466
20
40.133615508541745
30
0
0
LINE
5
174
100
AcDbEntity
8
0
100
AcDbLine
10
1.315052425354466
20
40.133615508541745
30
0
11
1.3137443707664431
21
40.135444741129746
31
0
0
LINE
5
175
100
AcDbEntity
8
0
100
AcDbLine
10
1.3137443707664431
20
40.135444741129746
30
0
11
-16.19587434976431
21
40.135444741129746
31
0
0
LINE
5
176
100
AcDbEntity
8
0
100
AcDbLine
10
-16.19587434976431
20
40.135444741129746
30
0
11
-16.194566295176358
21
40.133615508541745
31
0
0
SPLINE
5
177
100
AcDbEntity
8
0
100
AcDbSpline
70
0
71
3
72
8
73
4
74
0
42
0.000000001
43
0.0000000001
44
0.0000000001
40
60
40
60
40
60
40
60
40
61
40
61
40
61
40
61
10
-16.194566295176358
20
40.133615508541745
30
0
10
-16.47898641474427
20
40.133543974305859
30
0
10
-16.709490159247125
20
39.902922709274534
30
0
10
-16.709418625011168
20
39.618507699293644
30
0
0
LINE
5
178
100
AcDbEntity
8
0
100
AcDbLine
10
-16.709418625011168
20
39.61850258970594
30
0
11
-16.711247857599858
21
39.620071233294354
31
0
0
LINE
5
179
100
AcDbEntity
8
0
100
AcDbLine
10
-16.711247857599858
20
39.620071233294354
30
0
11
-16.711247857599858
21
38.332945518292938
31
0
0
LINE
5
180
100
AcDbEntity
8
0
100
AcDbLine
10
-16.711247857599858
20
38.332945518292938
30
0
11
-16.709418625011168
21
38.33111628570434
31
0
0
LINE
5
181
100
AcDbEntity
8
0
100
AcDbLine
10
-16.709418625011168
20
38.33111628570434
30
0
11
-16.709418625011168
21
38.330855696704035
31
0
0
SPLINE
5
182
100
AcDbEntity
8
0
100
AcDbSpline
70
0
71
3
72
8
73
4
74
0
42
0.000000001
43
0.0000000001
44
0.0000000001
40
66
40
66
40
66
40
66
40
67
40
67
40
67
40
67
10
-16.709418625011168
20
38.330855696704035
30
0
10
-16.709490159247125
20
38.046440686723848
30
0
10
-16.940106314689594
20
37.81593183263336
30
0
10
-17.224526434258678
20
37.816003366869246
30
0
0
LINE
5
183
100
AcDbEntity
8
0
100
AcDbLine
10
-17.224526434258678
20
37.816003366869246
30
0
11
-17.226621365436579
21
37.817572010457532
31
0
0
LINE
5
184
100
AcDbEntity
8
0
100
AcDbLine
10
-17.226621365436579
20
37.817572010457532
30
0
11
-35.764370992461423
21
37.817572010457532
31
0
0
LINE
5
185
100
AcDbEntity
8
0
100
AcDbLine
10
-35.764370992461423
20
37.817572010457532
30
0
11
-35.763849814460755
21
37.816003366869246
31
0
0
SPLINE
5
186
100
AcDbEntity
8
0
100
AcDbSpline
70
0
71
3
72
8
73
4
74
0
42
0.000000001
43
0.0000000001
44
0.0000000001
40
70
40
70
40
70
40
70
40
71
40
71
40
71
40
71
10
-35.763849814460755
20
37.816003366869246
30
0
10
-36.048167742264638
20
37.81593183263336
30
0
10
-36.278630610060247
20
37.585468964836778
30
0
10
-36.278702144297093
20
37.301151037033179
30
0
0
LINE
5
187
100
AcDbEntity
8
0
100
AcDbLine
10
-36.278702144297093
20
37.301151037033179
30
0
11
-36.279744500297113
21
37.302198502621451
31
0
0
LINE
5
188
100
AcDbEntity
8
0
100
AcDbLine
10
-36.279744500297113
20
37.302198502621451
30
0
11
-36.279744500297113
21
33.440821357618859
31
0
0
LINE
5
189
100
AcDbEntity
8
0
100
AcDbLine
10
-36.279744500297113
20
33.440821357618859
30
0
11
-36.278702144297093
21
33.438726426442273
31
0
0
LINE
5
190
100
AcDbEntity
8
0
100
AcDbLine
10
-36.278702144297093
20
33.438726426442273
30
0
11
-36.278702144297093
21
33.438470947030154
31
0
0
SPLINE
5
191
100
AcDbEntity
8
0
100
AcDbSpline
70
0
71
3
72
8
73
4
74
0
42
0.000000001
43
0.0000000001
44
0.0000000001
40
75
40
75
40
75
40
75
40
76
40
76
40
76
40
76
10
-36.278702144297093
20
33.438470947030154
30
0
10
-36.278773678531842
20
33.154055937049947
30
0
10
-36.509389833975767
20
32.923547082959459
30
0
10
-36.793809953544319
20
32.923618617194762
30
0
0
LINE
5
192
100
AcDbEntity
8
0
100
AcDbLine
10
-36.793809953544319
20
32.923618617194762
30
0
11
-36.795118008132945
21
32.92544784978336
31
0
0
LINE
5
193
100
AcDbEntity
8
0
100
AcDbLine
10
-36.795118008132945
20
32.92544784978336
30
0
11
-74.903980387031027
21
32.92544784978336
31
0
0
LINE
5
194
100
AcDbEntity
8
0
100
AcDbLine
10
19.471944887107728
20
43.797162734758558
30
0
11
19.471944887107728
21
37.817572010457532
31
0
0
LINE
5
195
100
AcDbEntity
8
0
100
AcDbLine
10
19.471944887107728
20
-43.60300006027078
30
0
11
19.471944887107728
21
-51.084049767333028
31
0
0
LINE
5
196
100
AcDbEntity
8
0
100
AcDbLine
10
3.4719448871077407
20
-47.210812027846401
30
0
11
3.4719448871077274
21
-41.521681226718073
31
0
0
LINE
5
197
100
AcDbEntity
8
0
100
AcDbLine
10
3.4719448871077341
20
37.817572010457532
30
0
11
3.4719448871077319
21
43.185497376838562
31
0
0
SPLINE
5
198
100
AcDbEntity
8
0
100
AcDbSpline
70
0
71
3
72
11
73
7
74
0
42
0.000000001
43
0.0000000001
44
0.0000000001
40
0
40
0
40
0
40
0
40
0.55139959397143579
40
0.55139959397143579
40
0.55139959397143579
40
0.99771167169942332
40
0.99771167169942332
40
0.99771167169942332
40
0.99771167169942332
10
-76.91927567885665
20
32.410035300292961
30
0
10
-76.91927567885665
20
32.964198775287919
30
0
10
-76.700604669367678
20
33.407113178335933
30
0
10
-76.280198378653694
20
33.78836920251554
30
0
10
-75.939914477196567
20
34.096964221732627
30
0
10
-75.46235780422937
20
34.337361788926103
30
0
10
-74.91906761645896
20
34.434925921427585
30
0
0
LINE
5
199
100
AcDbEntity
8
0
100
AcDbLine
10
-74.91906761645896
20
34.434925921427585
30
0
11
-41.051848496294113
21
39.982297803836623
31
0
0
LINE
5
200
100
AcDbEntity
8
0
100
AcDbLine
10
-41.051848496294113
20
39.982297803836623
30
0
11
25.558983303331875
21
42.528768945965822
31
0
0
LINE
5
201
100
AcDbEntity
8
0
100
AcDbLine
10
25.558983303331875
20
42.528768945965822
30
0
11
61.718398388602026
21
34.531731334825729
31
0
0
SPLINE
5
202
100
AcDbEntity
8
0
100
AcDbSpline
70
0
71
3
72
17
73
13
74
0
42
0.000000001
43
0.0000000001
44
0.0000000001
40
4.0012765561989942
40
4.0012765561989942
40
4.0012765561989942
40
4.0012765561989942
40
4.6134762369586451
40
4.6134762369586451
40
4.6134762369586451
40
5
40
5
40
5
40
6
40
6
40
6
40
6.1887429078220064
40
6.1887429078220064
40
6.1887429078220064
40
6.1887429078220064
10
61.718398388602019
20
34.531731334825679
30
0
10
62.634444777157377
20
34.319873957334359
30
0
10
63.232900508869001
20
33.904422270783222
30
0
10
63.539767427540511
20
33.44858927178371
30
0
10
63.733513618343224
20
33.160790549195212
30
0
10
63.840252551262239
20
32.846825872122068
30
0
10
63.840252551262239
20
32.408829516873169
30
0
10
63.840252551262239
20
32.403297670089117
30
0
10
63.840101015784924
20
32.389826203285843
30
0
10
63.839758603367045
20
32.368596633384563
30
0
10
63.839693579633064
20
32.364565161879042
30
0
10
63.839628555899075
20
32.360533690373508
30
0
10
63.839563532165101
20
32.356502218867817
30
0
0
ARC
5
203
100
AcDbEntity
8
0
100
AcDbCircle
10
65.339563532165101
20
-28.784506785102799
30
0
40
1.5000000000000036
210
0
220
0
230
1
100
AcDbArc
50
180
51
181.22800729006474
0
LINE
5
204
100
AcDbEntity
8
0
100
AcDbLine
10
63.839908041713748
20
-28.816653479475605
30
0
11
63.839908041713727
21
-28.820240140379706
31
0
0
SPLINE
5
205
100
AcDbEntity
8
0
100
AcDbSpline
70
0
71
3
72
8
73
4
74
0
42
0.000000001
43
0.0000000001
44
0.0000000001
40
-1.8279884453106117
40
-1.8279884453106117
40
-1.8279884453106117
40
-1.8279884453106117
40
-1.3074111884500208
40
-1.3074111884500208
40
-1.3074111884500208
40
-1.3074111884500208
10
63.448774389143885
20
-30.419393538764218
30
0
10
63.712086438856815
20
-29.932205492441383
30
0
10
63.84868131220523
20
-29.373900746264773
30
0
10
63.83990804171372
20
-28.820240140379717
30
0
0
ARC
5
206
100
AcDbEntity
8
0
100
AcDbCircle
10
62.120853320846692
20
-29.7556422369275
30
0
40
1.4845673289943724
210
0
220
0
230
1
100
AcDbArc
50
330.00675853811822
51
333.44217147145849
0
LINE
5
207
100
AcDbEntity
8
0
100
AcDbLine
10
63.406613891287279
20
-30.497774239887736
30
0
11
49.824978937406705
21
-54.040516709143915
31
0
0
ARC
5
208
100
AcDbEntity
8
0
100
AcDbCircle
10
48.522989656697746
20
-53.394804421633921
30
0
40
1.4533136087308898
210
0
220
0
230
1
100
AcDbArc
50
325.43106905436491
51
333.62121605369163
0
SPLINE
5
209
100
AcDbEntity
8
0
100
AcDbSpline
70
0
71
3
72
20
73
16
74
0
42
0.000000001
43
0.0000000001
44
0.0000000001
40
11.999020739759413
40
11.999020739759413
40
11.999020739759413
40
11.999020739759413
40
12
40
12
40
12
40
12.308415946947873
40
12.308415946947873
40
12.308415946947873
40
12.666284423470517
40
12.666284423470517
40
12.666284423470517
40
12.967980329876783
40
12.967980329876783
40
12.967980329876783
40
12.996622721756459
40
12.996622721756459
40
12.996622721756459
40
12.996622721756459
10
49.719712267598183
20
-54.219410653653128
30
0
10
49.71906452775066
20
-54.22036202155418
30
0
10
49.718416787904317
20
-54.221313389453499
30
0
10
49.717769048058074
20
-54.222264757352654
30
0
10
49.399209798376191
20
-54.690148655322837
30
0
10
49.21717033449977
20
-55.10414883491984
30
0
10
49.008669624503881
20
-55.457107329600291
30
0
10
48.766737155776099
20
-55.866660467228314
30
0
10
48.529325011234732
20
-56.138591968502148
30
0
10
48.340709955111166
20
-56.252288910151655
30
0
10
48.181700726715306
20
-56.348139492465791
30
0
10
48.047111034208363
20
-56.411771982267481
30
0
10
47.616567575752946
20
-56.346044884803874
30
0
10
47.575692660991237
20
-56.339804888692917
30
0
10
47.53235944157511
20
-56.332008729222565
30
0
10
47.486491259811402
20
-56.322411769665912
30
0
0
LINE
5
210
100
AcDbEntity
8
0
100
AcDbLine
10
47.486491259811402
20
-56.322411769665905
30
0
11
-74.502077511548151
21
-26.791741247715851
31
0
0
SPLINE
5
211
100
AcDbEntity
8
0
100
AcDbSpline
70
0
71
3
72
17
73
13
74
0
42
0.000000001
43
0.0000000001
44
0.0000000001
40
13.996208054937279
40
13.996208054937279
40
13.996208054937279
40
13.996208054937279
40
14
40
14
40
14
40
14.620570229335025
40
14.620570229335025
40
14.620570229335025
40
15
40
15
40
15
40
15.002051552728521
40
15.002051552728521
40
15.002051552728521
40
15.002051552728521
10
-74.502077511547284
20
-26.791741247716029
30
0
10
-74.509193406599564
20
-26.790236319519593
30
0
10
-74.516309301651631
20
-26.788731391323207
30
0
10
-74.523425196703684
20
-26.787226463126817
30
0
10
-75.399142894364729
20
-26.602022459182869
30
0
10
-76.128512285490444
20
-26.161621276399131
30
0
10
-76.51650523579336
20
-25.661657466970198
30
0
10
-76.753732336279342
20
-25.35596901369766
30
0
10
-76.884563123526263
20
-25.039662164238301
30
0
10
-76.912619055156114
20
-24.639799935484668
30
0
10
-76.912885157639479
20
-24.636007356664734
30
0
10
-76.913151260122831
20
-24.632214777844794
30
0
10
-76.913417362606083
20
-24.62842219902662
30
0
0
ARC
5
212
100
AcDbEntity
8
0
100
AcDbCircle
10
-75.419149161957222
20
-24.49597485671795
30
0
40
1.5001265793107932
210
0
220
0
230
1
100
AcDbArc
50
179.99045788313799
51
185.06528439385391
0
LINE
5
213
100
AcDbEntity
8
0
100
AcDbLine
10
-76.919275720464242
20
-24.495725023602581
30
0
11
-76.91927567885665
21
32.410035300292961
31
0
0
LINE
5
214
100
AcDbEntity
8
0
100
AcDbLine
10
58.33972313870467
20
33.42544784978336
30
0
11
58.33972313870467
21
33.42544784978336
31
0
0
LINE
5
215
100
AcDbEntity
8
0
100
AcDbLine
10
57.83972313870467
20
33.92544784978336
30
0
11
45.466111163994015
21
33.92544784978336
31
0
0
LINE
5
216
100
AcDbEntity
8
0
100
AcDbLine
10
44.966111163994015
20
33.42544784978336
30
0
11
44.966111163994015
21
33.42544784978336
31
0
0
LINE
5
217
100
AcDbEntity
8
0
100
AcDbLine
10
61.824349630869335
20
32.92544784978336
30
0
11
58.839723138704663
21
32.92544784978336
31
0
0
LINE
5
218
100
AcDbEntity
8
0
100
AcDbLine
10
44.466111163994022
20
32.92544784978336
30
0
11
41.4814846718307
21
32.92544784978336
31
0
0
ARC
5
219
100
AcDbEntity
8
0
100
AcDbCircle
10
45.466111163994015
20
33.42544784978336
30
0
40
0.49999999999999822
210
0
220
-0
230
1
100
AcDbArc
50
90
51
180
0
ARC
5
220
100
AcDbEntity
8
0
100
AcDbCircle
10
44.466111163994022
20
33.42544784978336
30
0
40
0.49999999999999822
210
-0
220
0
230
1
100
AcDbArc
50
-90
51
0
0
ARC
5
221
100
AcDbEntity
8
0
100
AcDbCircle
10
57.83972313870467
20
33.42544784978336
30
0
40
0.49999999999999822
210
0
220
0
230
1
100
AcDbArc
50
0
51
90
0
ARC
5
222
100
AcDbEntity
8
0
100
AcDbCircle
10
58.839723138704663
20
33.42544784978336
30
0
40
0.49999999999999822
210
0
220
0
230
1
100
AcDbArc
50
180
51
270
0
LINE
5
223
100
AcDbEntity
8
0
100
AcDbLine
10
63.83972313870467
20
-20.598472444140754
30
0
11
62.83972313870467
21
-20.598472444140754
31
0
0
LINE
5
224
100
AcDbEntity
8
0
100
AcDbLine
10
62.83972313870467
20
-14.59847244414075
30
0
11
63.83972313870467
21
-14.59847244414075
31
0
0
LINE
5
225
100
AcDbEntity
8
0
100
AcDbLine
10
64.33972313870467
20
-15.098472444140757
30
0
11
64.33972313870467
21
-20.098472444140757
31
0
0
LINE
5
226
100
AcDbEntity
8
0
100
AcDbLine
10
62.33972313870467
20
-28.846122033552142
30
0
11
62.339723138704706
21
-21.09847244414075
31
0
0
LINE
5
227
100
AcDbEntity
8
0
100
AcDbLine
10
62.339723138704706
20
-14.098472444140754
30
0
11
62.33972313870467
21
32.410074341947265
31
0
0
LINE
5
228
100
AcDbEntity
8
0
100
AcDbLine
10
63.839563532165101
20
32.356502218867824
30
0
11
63.839563532165101
21
-14.59847244414075
31
0
0
LINE
5
229
100
AcDbEntity
8
0
100
AcDbLine
10
63.839563532165101
20
-20.598472444140754
30
0
11
63.839563532165101
21
-28.784506785102803
31
0
0
ARC
5
230
100
AcDbEntity
8
0
100
AcDbCircle
10
63.83972313870467
20
-15.098472444140757
30
0
40
0.49999999999999822
210
-0
220
0
230
1
100
AcDbArc
50
0
51
90
0
ARC
5
231
100
AcDbEntity
8
0
100
AcDbCircle
10
62.83972313870467
20
-14.098472444140754
30
0
40
0.4999999999999627
210
0
220
0
230
1
100
AcDbArc
50
180
51
270
0
ARC
5
232
100
AcDbEntity
8
0
100
AcDbCircle
10
62.83972313870467
20
-21.09847244414075
30
0
40
0.49999999999999822
210
0
220
-0
230
1
100
AcDbArc
50
90
51
180
0
ARC
5
233
100
AcDbEntity
8
0
100
AcDbCircle
10
63.83972313870467
20
-20.098472444140757
30
0
40
0.49999999999999378
210
0
220
0
230
1
100
AcDbArc
50
-90
51
0
0
ENDSEC
0
SECTION
2
OBJECTS
0
DICTIONARY
5
C
100
AcDbDictionary
3
ACAD_GROUP
350
D
3
ACAD_MLINESTYLE
350
17
0
DICTIONARY
5
D
100
AcDbDictionary
0
DICTIONARY
5
1A
330
C
100
AcDbDictionary
0
DICTIONARY
5
17
100
AcDbDictionary
0
ENDSEC
0
EOF
