<?xml version="1.0" encoding="utf-8"?>
<!-- Generator: Adobe Illustrator 25.2.1, SVG Export Plug-In . SVG Version: 6.00 Build 0)  -->
<svg version="1.1" id="Layer_1" xmlns="http://www.w3.org/2000/svg" xmlns:xlink="http://www.w3.org/1999/xlink" x="0px" y="0px"
	 viewBox="0 0 566.93 6094.49" style="enable-background:new 0 0 566.93 6094.49;" xml:space="preserve">
<style type="text/css">
	.st0{fill:none;stroke:#0000FF;stroke-width:0.25;stroke-miterlimit:10;}
	.st1{fill:none;stroke:#0000FF;stroke-width:0.25;stroke-linecap:round;stroke-linejoin:round;stroke-miterlimit:10;}
</style>
<circle class="st0" cx="388.03" cy="3102.06" r="11.48"/>
<circle class="st0" cx="263.75" cy="3071.69" r="11.48"/>
<circle class="st0" cx="155.41" cy="3045.27" r="11.48"/>
<circle class="st0" cx="186.74" cy="2856.79" r="11.48"/>
<circle class="st0" cx="373.74" cy="2849.91" r="11.48"/>
<g>
	<path class="st1" d="M79.71,2870.39c0-5.11,4.07-9.02,9.21-9.93l96.29-15.77l189.63-7.25l103.05,22.79
		c5.56,1.28,9.33,4.92,9.33,10.17c0,0.06,0,0.12,0,0.18v173.28c0,0.02,0,0.05,0,0.07c0.03,2.28-0.52,4.53-1.59,6.53
		c-0.07,0.13-0.13,0.26-0.21,0.38l-38.44,66.64c-0.16,0.3-0.33,0.6-0.53,0.88c-1.88,2.75-3.64,9.25-10.78,7.71l-345.79-83.71
		c-5.32-1.12-9.77-4.71-10.13-9.95c-0.02-0.23-0.03-0.47-0.03-0.71V2870.39z"/>
	<path class="st1" d="M89.68,2868.93c-0.81,0-1.46,0.66-1.46,1.46c0,0,0,0,0,0l-0.01,0v161.31l0.01,0c0,0.81,0.65,1.46,1.46,1.46
		c0,0,0,0,0,0l0,0h160.58l0,0c0.39,0,0.76,0.15,1.03,0.43l0-0.01l30.78,42.21l0,0.01c0.27,0.27,0.65,0.43,1.03,0.43l0,0
		l107.06,13.93l0,0c0.65,0.06,1.29,0.19,1.91,0.38l0,0l41.73,24.12l0.01,0.01c1.88,1,4.58,0.37,5.62-1.11l38.62-66.95l0,0
		c0.45-0.77,0.67-1.65,0.66-2.55l0-0.01v-173.64l0,0c0-0.81-0.65-1.46-1.46-1.46l0-0.01h-57.66l0.01,0.01c0,0,0,0,0,0
		c-0.81,0-1.46-0.65-1.46-1.46l-0.01-0.01v-3.65l0.01,0.01c0-0.81-0.65-1.46-1.46-1.46l0-0.01h-52.56l0,0.01
		c-0.81,0-1.46-0.65-1.46-1.46l0-0.01v-4.38l0,0c0-0.81-0.65-1.46-1.46-1.46l-0.01,0h-52.55l0,0c0,0,0,0,0,0
		c-0.81,0-1.46-0.65-1.46-1.46l0-0.01v-3.65l0,0c0-0.81-0.65-1.46-1.46-1.46l0,0l0-0.01h-49.63l0,0.01c-0.81,0-1.46,0.65-1.46,1.46
		c0,0,0,0,0,0l-0.01,0v3.65l0.01,0.01c0,0,0,0,0,0c0,0.81-0.65,1.46-1.46,1.46l-0.01,0h-52.55l0,0c-0.81,0-1.46,0.65-1.46,1.46l0,0
		v10.95l0,0.01c0,0,0,0,0,0c0,0.81-0.65,1.46-1.46,1.46l0-0.01H89.68z"/>
</g>
<path class="st1" d="M435.67,3126.06"/>
<rect x="178.52" y="3037.53" class="st1" width="70.87" height="22.68"/>
<path class="st1" d="M107.63,2797.3c0.33,0,0.71-0.04,1.11-0.13c0,0,345.82-83.71,345.86-83.72c2.97-0.63,6.53-2.6,6.77-6.09
	c0.01-0.17,0.02-0.29,0.02-0.41v-161.31c0-3.26-2.95-5.26-5.69-5.74l-95.98-15.72l-188.82-7.22l-102.52,22.67
	c-2.22,0.51-6,1.98-6,6.01c0,0,0,173.54,0,173.58c-0.01,1.6,0.36,3.13,1.09,4.48c0.07,0.13,0.1,0.2,0.14,0.26l38.45,66.64
	c0.03,0.05,0.06,0.11,0.09,0.17c0.08,0.15,0.16,0.29,0.26,0.43c0.47,0.69,0.86,1.41,1.27,2.17
	C105.27,2796.32,106.07,2797.3,107.63,2797.3z"/>
</svg>
