0
SECTION
2
HEADER
9
$INSUNITS
70
4
9
$ACADVER
1
AC1014
9
$HANDSEED
5
FFFF
0
ENDSEC
0
SECTION
2
TABLES
0
TABLE
2
VPORT
5
8
100
AcDbSymbolTable
0
ENDTAB
0
TABLE
2
LTYPE
5
5
100
AcDbSymbolTable
0
LTYPE
5
14
100
AcDbSymbolTableRecord
100
AcDbLinetypeTableRecord
2
BYBLOCK
70
0
0
LTYPE
5
15
100
AcDbSymbolTableRecord
100
AcDbLinetypeTableRecord
2
BYLAYER
70
0
0
ENDTAB
0
TABLE
2
LAYER
5
2
100
AcDbSymbolTable
70
2
0
LAYER
5
50
100
AcDbSymbolTableRecord
100
AcDbLayerTableRecord
2
0
70
0
6
CONTINUOUS
0
ENDTAB
0
TABLE
2
STYLE
5
3
100
AcDbSymbolTable
70
1
0
STYLE
5
11
100
AcDbSymbolTableRecord
100
AcDbTextStyleTableRecord
2
STANDARD
70
0
0
ENDTAB
0
TABLE
2
VIEW
5
6
100
AcDbSymbolTable
70
0
0
ENDTAB
0
TABLE
2
UCS
5
7
100
AcDbSymbolTable
70
0
0
ENDTAB
0
TABLE
2
APPID
5
9
100
AcDbSymbolTable
70
2
0
APPID
5
12
100
AcDbSymbolTableRecord
100
AcDbRegAppTableRecord
2
ACAD
70
0
0
ENDTAB
0
TABLE
2
DIMSTYLE
5
A
100
AcDbSymbolTable
70
1
0
ENDTAB
0
TABLE
2
BLOCK_RECORD
5
1
100
AcDbSymbolTable
70
1
0
BLOCK_RECORD
5
1F
100
AcDbSymbolTableRecord
100
AcDbBlockTableRecord
2
*MODEL_SPACE
0
BLOCK_RECORD
5
1B
100
AcDbSymbolTableRecord
100
AcDbBlockTableRecord
2
*PAPER_SPACE
0
ENDTAB
0
ENDSEC
0
SECTION
2
BLOCKS
0
BLOCK
5
20
100
AcDbEntity
100
AcDbBlockBegin
2
*MODEL_SPACE
0
ENDBLK
5
21
100
AcDbEntity
100
AcDbBlockEnd
0
BLOCK
5
1C
100
AcDbEntity
100
AcDbBlockBegin
2
*PAPER_SPACE
0
ENDBLK
5
1D
100
AcDbEntity
100
AcDbBlockEnd
0
ENDSEC
0
SECTION
2
ENTITIES
0
CIRCLE
5
100
100
AcDbEntity
8
0
100
AcDbCircle
10
70.620182037464104
20
-54.258380968597194
30
0
40
4.0800000010200002
210
0
220
0
230
1
0
LWPOLYLINE
5
101
100
AcDbEntity
8
0
100
AcDbPolyline
90
4
70
1
43
0.0
10
6.6777636952113895
20
-55.758380969092798
10
-65.629943933350091
20
-55.758380969653231
10
-65.629943933131727
20
-31.609985249673024
10
-10.932478998956693
20
-31.609985249673013
0
LINE
5
102
100
AcDbEntity
8
0
100
AcDbLine
10
-69.629943933025658
20
-25.108679876065665
30
0
11
-69.629943933025686
21
39.640145705802432
31
0
0
SPLINE
5
103
100
AcDbEntity
8
0
100
AcDbSpline
70
0
71
3
72
8
73
4
74
0
42
0.000000001
43
0.0000000001
44
0.0000000001
40
2
40
2
40
2
40
2
40
3
40
3
40
3
40
3
10
-69.629943933025686
20
39.640145705802432
30
0
10
-69.629943933025686
20
41.848538039786796
30
0
10
-67.841358015870767
20
43.640633647968237
30
0
10
-65.629455990859896
20
43.640633647968237
30
0
0
LINE
5
104
100
AcDbEntity
8
0
100
AcDbLine
10
-65.629455990859896
20
43.640633647968237
30
0
11
72.119694094589377
21
43.640633647968272
31
0
0
SPLINE
5
105
100
AcDbEntity
8
0
100
AcDbSpline
70
0
71
3
72
8
73
4
74
0
42
0.000000001
43
0.0000000001
44
0.0000000001
40
4
40
4
40
4
40
4
40
5
40
5
40
5
40
5
10
72.119694094589377
20
43.640633647968272
30
0
10
74.331617651446891
20
43.640633647968272
30
0
10
76.120182036754969
20
41.848538039786831
30
0
10
76.120182036754969
20
39.640145705802468
30
0
0
LINE
5
106
100
AcDbEntity
8
0
100
AcDbLine
10
76.120182036754969
20
39.640145705802468
30
0
11
76.120182037475416
21
-55.758014926824934
31
0
0
SPLINE
5
107
100
AcDbEntity
8
0
100
AcDbSpline
70
0
71
3
72
8
73
4
74
0
42
0.000000001
43
0.0000000001
44
0.0000000001
40
6
40
6
40
6
40
6
40
7
40
7
40
7
40
7
10
76.120182036754969
20
-55.758014931946782
30
0
10
76.120182036754969
20
-57.966407265930968
30
0
10
74.331617651446891
20
-59.758524405959292
30
0
10
72.119694094589377
20
-59.758524405959292
30
0
0
LINE
5
108
100
AcDbEntity
8
0
100
AcDbLine
10
72.11969409548712
20
-59.758524401014725
30
0
11
55.514441510932635
21
-59.758380968714278
31
0
0
CIRCLE
5
109
100
AcDbEntity
8
0
100
AcDbCircle
10
-64.129943933025658
20
38.140633647968237
30
0
40
4.0800000010200783
210
0
220
0
230
1
0
ELLIPSE
5
110
100
AcDbEntity
8
0
100
AcDbEllipse
10
55.688663817875899
20
-51.752728684621943
30
0
11
1.0886923400419521
21
3.8807729746077531
31
0.0
40
0.9132013444053132
41
2.8649984226360909
42
3.3924028399986321
0
LINE
5
111
100
AcDbEntity
8
0
100
AcDbLine
10
53.673572643195087
20
-55.214501847514832
30
0
11
39.691997122361684
21
-47.134374894389843
31
0
0
SPLINE
5
112
100
AcDbEntity
8
0
100
AcDbSpline
70
0
71
3
72
8
73
4
74
0
42
0.000000001
43
0.0000000001
44
0.0000000001
40
2
40
2
40
2
40
2
40
3
40
3
40
3
40
3
10
39.691997122361684
20
-47.134374894389843
30
0
10
39.660302243889518
20
-47.128862741612068
30
0
10
39.628435110643139
20
-47.124728627028887
30
0
10
39.596567977396617
20
-47.121628041091164
30
0
0
LINE
5
113
100
AcDbEntity
8
0
100
AcDbLine
10
39.596567977396617
20
-47.121628041091164
30
0
11
39.53438400387224
21
-47.095445315396773
31
0
0
LINE
5
114
100
AcDbEntity
8
0
100
AcDbLine
10
39.53438400387224
20
-47.095445315396773
30
0
11
39.531972466542136
21
-47.113359589175204
31
0
0
LINE
5
115
100
AcDbEntity
8
0
100
AcDbLine
10
39.531972466542136
20
-47.113359589175204
30
0
11
2.9552214041760889
21
-42.354993958184295
31
0
0
ELLIPSE
5
116
100
AcDbEntity
8
0
100
AcDbEllipse
10
3.3880960804059002
20
-39.258810261816791
30
0
11
1.2850334978259725
21
2.8867536786635077
31
0.0
40
0.88293139406049714
41
2.8148967628213653
42
3.4563334299558042
0
LINE
5
117
100
AcDbEntity
8
0
100
AcDbLine
10
1.3530797482917525
20
-41.628767828737594
30
0
11
1.2095915121117731
21
-41.34833703794574
31
0
0
LINE
5
118
100
AcDbEntity
8
0
100
AcDbLine
10
1.2095915121117731
20
-41.34833703794574
30
0
11
1.1510249243641517
21
-41.391056196078523
31
0
0
LINE
5
119
100
AcDbEntity
8
0
100
AcDbLine
10
1.1510249243641517
20
-41.391056196078523
30
0
11
-8.8988353964431415
21
-27.609985249673016
31
0
0
LINE
5
120
100
AcDbEntity
8
0
100
AcDbLine
10
-8.8988353964431415
20
-27.609985249673016
30
0
11
-63.130667258217976
21
-27.609985249673024
31
0
0
LINE
5
121
100
AcDbEntity
8
0
100
AcDbLine
10
-63.130667258217976
20
-27.609985249673024
30
0
11
-63.129289227464831
21
-27.610674265049582
31
0
0
SPLINE
5
122
100
AcDbEntity
8
0
100
AcDbSpline
70
0
71
3
72
8
73
4
74
0
42
0.000000001
43
0.0000000001
44
0.0000000001
40
12
40
12
40
12
40
12
40
13
40
13
40
13
40
13
10
-63.129289227464831
20
-27.610674265049582
30
0
10
-64.506982912360627
20
-27.610674265049582
30
0
10
-65.6281892383155
20
-26.490329212966408
30
0
10
-65.629395021735633
20
-25.112980037618975
30
0
0
LINE
5
123
100
AcDbEntity
8
0
100
AcDbLine
10
-65.629395021735633
20
-25.112980037618975
30
0
11
-65.629943933025658
21
-25.111882215038975
31
0
0
LINE
5
124
100
AcDbEntity
8
0
100
AcDbLine
10
-65.629943933025658
20
-25.111882215038975
30
0
11
-65.629943933025686
21
30.140964351857569
31
0
0
LINE
5
125
100
AcDbEntity
8
0
100
AcDbLine
10
-65.629943933025686
20
30.140964351857569
30
0
11
-65.629395021735661
21
30.141183916373571
31
0
0
SPLINE
5
126
100
AcDbEntity
8
0
100
AcDbSpline
70
0
71
3
72
8
73
4
74
0
42
0.000000001
43
0.0000000001
44
0.0000000001
40
16
40
16
40
16
40
16
40
17
40
17
40
17
40
17
10
-65.629395021735661
20
30.141183916373571
30
0
10
-65.628189238315542
20
31.517844072623582
30
0
10
-64.508188695780831
20
32.637844615158329
30
0
10
-63.131528539530848
20
32.638878143804142
30
0
0
LINE
5
127
100
AcDbEntity
8
0
100
AcDbLine
10
-63.131528539530848
20
32.638878143804142
30
0
11
-63.130667265659284
21
32.640600691547164
31
0
0
LINE
5
128
100
AcDbEntity
8
0
100
AcDbLine
10
-63.130667265659284
20
32.640600691547164
30
0
11
-27.630336319478381
21
32.640600691547164
31
0
0
LINE
5
129
100
AcDbEntity
8
0
100
AcDbLine
10
-27.630336319478381
20
32.640600691547164
30
0
11
-27.629302790832568
21
34.890592553526361
31
0
0
SPLINE
5
130
100
AcDbEntity
8
0
100
AcDbSpline
70
0
71
3
72
8
73
4
74
0
42
0.000000001
43
0.0000000001
44
0.0000000001
40
20
40
20
40
20
40
20
40
21
40
21
40
21
40
21
10
-27.629302790832568
20
34.890592553526361
30
0
10
-27.628269262186755
20
36.267597219325012
30
0
10
-26.50775195532912
20
37.388286780956896
30
0
10
-25.130919544304788
20
37.388975800054141
30
0
0
LINE
5
131
100
AcDbEntity
8
0
100
AcDbLine
10
-25.130919544304788
20
37.388975800054141
30
0
11
-25.129886015659011
21
37.390353838248558
31
0
0
LINE
5
132
100
AcDbEntity
8
0
100
AcDbLine
10
-25.129886015659011
20
37.390353838248558
30
0
11
-8.6168543316312096
21
37.390353838248558
31
0
0
SPLINE
5
133
100
AcDbEntity
8
0
100
AcDbSpline
70
0
71
3
72
11
73
7
74
0
42
0.000000001
43
0.0000000001
44
0.0000000001
40
23
40
23
40
23
40
23
40
24
40
24
40
24
40
25
40
25
40
25
40
25
10
-8.6168543316312096
20
37.390353838248558
30
0
10
-8.5601825108846796
20
37.963273217588878
30
0
10
-8.3095518142700442
20
38.494506941547186
30
0
10
-7.8971738845825712
20
38.906884871234695
30
0
10
-7.4255403125340536
20
39.378518443283319
30
0
10
-6.7987051888360739
20
39.638623152484662
30
0
10
-6.1317347027250335
20
39.638967662033338
30
0
0
LINE
5
134
100
AcDbEntity
8
0
100
AcDbLine
10
-6.1317347027250335
20
39.638967662033338
30
0
11
-6.1309017097575405
21
39.640633647968237
31
0
0
LINE
5
135
100
AcDbEntity
8
0
100
AcDbLine
10
-6.1309017097575405
20
39.640633647968237
30
0
11
4.0786410421670505
21
39.640633647968244
31
0
0
LINE
5
136
100
AcDbEntity
8
0
100
AcDbLine
10
4.0786410421670505
20
39.640633647968244
30
0
11
10.873428871493793
21
39.638967662033338
31
0
0
SPLINE
5
137
100
AcDbEntity
8
0
100
AcDbSpline
70
0
71
3
72
8
73
4
74
0
42
0.000000001
43
0.0000000001
44
0.0000000001
40
28
40
28
40
28
40
28
40
29
40
29
40
29
40
29
10
10.873428871493793
20
39.638967662033338
30
0
10
12.165856443108218
20
39.637934133387525
30
0
10
13.231768986511021
20
38.650569767068035
30
0
10
13.358203990851294
20
37.390353838248558
30
0
0
LINE
5
138
100
AcDbEntity
8
0
100
AcDbLine
10
13.358203990851294
20
37.390353838248558
30
0
11
29.868651853264474
21
37.390353838248593
31
0
0
LINE
5
139
100
AcDbEntity
8
0
100
AcDbLine
10
29.868651853264474
20
37.390353838248593
30
0
11
29.873302732170721
21
37.388975800054176
31
0
0
SPLINE
5
140
100
AcDbEntity
8
0
100
AcDbSpline
70
0
71
3
72
8
73
4
74
0
42
0.000000001
43
0.0000000001
44
0.0000000001
40
31
40
31
40
31
40
31
40
32
40
32
40
32
40
32
10
29.873302732170721
20
37.388975800054176
30
0
10
31.24979063364659
20
37.387597761859723
30
0
10
32.369446666632555
20
36.267941728873616
30
0
10
32.37065245005283
20
34.891281572623605
30
0
0
LINE
5
141
100
AcDbEntity
8
0
100
AcDbLine
10
32.37065245005283
20
34.891281572623605
30
0
11
48.870420516459099
21
34.891281572623605
31
0
0
LINE
5
142
100
AcDbEntity
8
0
100
AcDbLine
10
48.870420516459099
20
34.891281572623605
30
0
11
48.873348847622218
21
34.888870005783374
31
0
0
LINE
5
143
100
AcDbEntity
8
0
100
AcDbLine
10
48.873348847622218
20
34.888870005783374
30
0
11
48.873348847622218
21
34.889214515331943
31
0
0
SPLINE
5
144
100
AcDbEntity
8
0
100
AcDbSpline
70
0
71
3
72
8
73
4
74
0
42
0.000000001
43
0.0000000001
44
0.0000000001
40
35
40
35
40
35
40
35
40
36
40
36
40
36
40
36
10
48.873348847622218
20
34.889214515331943
30
0
10
50.165431909688145
20
34.887836477137562
30
0
10
51.231516707865339
20
33.900127601269432
30
0
10
51.358123966979718
20
32.640600691547199
30
0
0
LINE
5
145
100
AcDbEntity
8
0
100
AcDbLine
10
51.358123966979718
20
32.640600691547199
30
0
11
69.619713864983197
21
32.640600691547199
31
0
0
LINE
5
146
100
AcDbEntity
8
0
100
AcDbLine
10
69.619713864983197
20
32.640600691547199
30
0
11
69.622814450920743
21
32.638878143804178
31
0
0
SPLINE
5
147
100
AcDbEntity
8
0
100
AcDbSpline
70
0
71
3
72
8
73
4
74
0
42
0.000000001
43
0.0000000001
44
0.0000000001
40
38
40
38
40
38
40
38
40
39
40
39
40
39
40
39
10
69.622814450920743
20
32.638878143804178
30
0
10
70.999474607170754
20
32.637844615158365
30
0
10
72.119819659254105
20
31.517499563075049
30
0
10
72.120680933125598
20
30.140494897276398
30
0
0
LINE
5
148
100
AcDbEntity
8
0
100
AcDbLine
10
72.120680933125598
20
30.140494897276398
30
0
11
72.120508689977953
21
-29.310140102723793
31
0
0
ELLIPSE
5
149
100
AcDbEntity
8
0
100
AcDbEllipse
10
68.537548630044071
20
-29.377381667822249
30
0
11
0.57723745921363923
21
3.5967658588392357
31
0.0
40
0.98323644556146983
41
4.3427714436372167
42
4.887363613546615
0
LINE
5
150
100
AcDbEntity
8
0
100
AcDbLine
10
71.626654253114467
20
-31.205976086343654
30
0
11
71.626309764577741
21
-31.209420971749019
31
0
0
LINE
5
151
100
AcDbEntity
8
0
100
AcDbLine
10
71.626309764577741
20
-31.209420971749019
30
0
11
58.398004399014347
21
-54.140321110023407
31
0
0
LINE
5
152
100
AcDbEntity
8
0
100
AcDbLine
10
58.398004399014347
20
-54.140321110023407
30
0
11
58.368032007344404
21
-54.123095597514848
31
0
0
LINE
5
153
100
AcDbEntity
8
0
100
AcDbLine
10
58.368032007344404
20
-54.123095597514848
30
0
11
58.381467879740363
21
-54.174083010709282
31
0
0
LINE
5
154
100
AcDbEntity
8
0
100
AcDbLine
10
58.381467879740363
20
-54.174083010709282
30
0
11
58.321695473056323
21
-54.26296647425108
31
0
0
LINE
5
155
100
AcDbEntity
8
0
100
AcDbLine
10
58.321695473056323
20
-54.26296647425108
30
0
11
58.323590275573522
21
-54.264344512445462
31
0
0
SPLINE
5
156
100
AcDbEntity
8
0
100
AcDbSpline
70
0
71
3
72
8
73
4
74
0
42
0.000000001
43
0.0000000001
44
0.0000000001
40
47
40
47
40
47
40
47
40
48
40
48
40
48
40
48
10
58.323590275573522
20
-54.264344512445462
30
0
10
57.692965546841002
20
-55.200032446473308
30
0
10
56.642555933125678
20
-55.75882693432046
30
0
10
55.513598142327005
20
-55.75882693432046
30
0
0
LINE
5
157
100
AcDbEntity
8
0
100
AcDbLine
10
55.514441510932635
20
-59.758380968714278
30
0
11
-65.629312563066847
21
-59.75838096965326
31
0
0
SPLINE
5
158
100
AcDbEntity
8
0
100
AcDbSpline
70
0
71
3
72
8
73
4
74
0
42
0.000000001
43
0.0000000001
44
0.0000000001
40
1
40
1
40
1
40
1
40
2
40
2
40
2
40
2
10
-65.629312562612995
20
-59.758380973342014
30
0
10
-67.841214586202227
20
-59.75846027697046
30
0
10
-69.629864755230642
20
-57.966407264511602
30
0
10
-69.629943933025643
20
-55.758014931946811
30
0
0
LINE
5
159
100
AcDbEntity
8
0
100
AcDbLine
10
-69.62994393335012
20
-55.758014928128681
30
0
11
-69.629943933025658
21
-25.108679876065665
31
0
0
CIRCLE
5
160
100
AcDbEntity
8
0
100
AcDbCircle
10
70.620182036766295
20
38.140633647968237
30
0
40
4.0800000010200783
210
0
220
0
230
1
0
ENDSEC
0
SECTION
2
OBJECTS
0
DICTIONARY
5
C
100
AcDbDictionary
3
ACAD_GROUP
350
D
3
ACAD_MLINESTYLE
350
17
0
DICTIONARY
5
D
100
AcDbDictionary
0
DICTIONARY
5
1A
330
C
100
AcDbDictionary
0
DICTIONARY
5
17
100
AcDbDictionary
0
ENDSEC
0
EOF
